<?xml version="1.0" encoding="UTF-8" standalone="no"?>
<svg
   width="600"
   height="410"
   viewBox="0 0 600 410"
   fill="none"
   version="1.1"
   id="svg55"
   sodipodi:docname="chart-3.svg"
   inkscape:version="1.1.1 (26b7af14f2, 2022-01-19)"
   xmlns:inkscape="http://www.inkscape.org/namespaces/inkscape"
   xmlns:sodipodi="http://sodipodi.sourceforge.net/DTD/sodipodi-0.dtd"
   xmlns="http://www.w3.org/2000/svg"
   xmlns:svg="http://www.w3.org/2000/svg">
  <sodipodi:namedview
     id="namedview57"
     pagecolor="#ffffff"
     bordercolor="#666666"
     borderopacity="1.0"
     inkscape:pageshadow="2"
     inkscape:pageopacity="0.0"
     inkscape:pagecheckerboard="0"
     showgrid="false"
     inkscape:zoom="0.87313433"
     inkscape:cx="416.31624"
     inkscape:cy="224.47863"
     inkscape:window-width="1908"
     inkscape:window-height="1017"
     inkscape:window-x="1924"
     inkscape:window-y="1097"
     inkscape:window-maximized="0"
     inkscape:current-layer="g4" />
  <g
     filter="url(#filter0_d_535_1409)"
     id="g4"
     transform="translate(-35,-17)">
    <rect
       x="35"
       y="17"
       width="600"
       height="410"
       rx="30"
       fill="#ffffff"
       id="rect2" />
  </g>
  <path
     d="M 111.015,140.077 220,77.1547 328.985,140.077 V 265.923 L 220,328.845 111.015,265.923 Z"
     stroke="#eeeef7"
     stroke-width="2"
     id="path6" />
  <path
     d="m 149.12,162.077 70.88,-40.922 70.88,40.922 v 81.846 L 220,284.845 149.12,243.923 Z"
     stroke="#eeeef7"
     stroke-width="2"
     id="path8" />
  <path
     d="m 162.413,170.015 57.95,-47.723 81.717,32.102 5.851,98.009 -87.585,52.065 -64.269,-67.19 z"
     stroke="#0088f0"
     stroke-width="4"
     id="path10" />
  <path
     d="M 136.521,155.392 219.362,109.637 265.24,177.966 295.442,247 H 220.274 L 167.79,232.338 Z"
     stroke="#ef2a82"
     stroke-width="4"
     id="path12" />
  <path
     d="M 195.885,189.077 220,175.155 l 24.115,13.922 v 27.846 L 220,230.845 195.885,216.923 Z"
     stroke="#eeeef7"
     stroke-width="2"
     id="path14" />
  <path
     d="m 460.508,136.252 h 2.676 c 1.682,-0.026 3.004,-0.469 3.966,-1.329 0.963,-0.86 1.444,-2.021 1.444,-3.484 0,-3.286 -1.636,-4.929 -4.909,-4.929 -1.54,0 -2.772,0.443 -3.696,1.328 -0.912,0.873 -1.367,2.035 -1.367,3.485 h -3.562 c 0,-2.22 0.809,-4.062 2.426,-5.525 1.63,-1.476 3.696,-2.214 6.199,-2.214 2.644,0 4.717,0.699 6.218,2.098 1.502,1.399 2.253,3.344 2.253,5.834 0,1.219 -0.398,2.4 -1.194,3.542 -0.783,1.142 -1.854,1.996 -3.215,2.561 1.54,0.487 2.728,1.296 3.562,2.425 0.847,1.13 1.271,2.51 1.271,4.14 0,2.515 -0.822,4.511 -2.465,5.987 -1.643,1.476 -3.78,2.214 -6.411,2.214 -2.631,0 -4.774,-0.712 -6.43,-2.137 -1.643,-1.425 -2.464,-3.305 -2.464,-5.641 h 3.581 c 0,1.476 0.481,2.657 1.444,3.543 0.962,0.885 2.252,1.328 3.869,1.328 1.72,0 3.036,-0.449 3.947,-1.348 0.911,-0.898 1.367,-2.188 1.367,-3.869 0,-1.63 -0.501,-2.882 -1.502,-3.755 -1.001,-0.872 -2.445,-1.322 -4.332,-1.347 h -2.676 z m 31.998,6.334 h 3.889 v 2.907 h -3.889 V 152 h -3.581 v -6.507 H 476.16 v -2.099 l 12.553,-19.425 h 3.793 z m -12.303,0 h 8.722 V 128.84 l -0.424,0.77 z m 19.099,-13.227 c 0,-1.681 0.532,-3.067 1.598,-4.158 1.078,-1.091 2.457,-1.637 4.139,-1.637 1.707,0 3.087,0.552 4.139,1.656 1.065,1.091 1.598,2.509 1.598,4.255 v 1.367 c 0,1.694 -0.539,3.08 -1.617,4.158 -1.066,1.066 -2.426,1.598 -4.082,1.598 -1.668,0 -3.048,-0.532 -4.139,-1.598 -1.091,-1.078 -1.636,-2.509 -1.636,-4.293 z m 2.656,1.483 c 0,1.001 0.283,1.829 0.848,2.483 0.564,0.642 1.322,0.963 2.271,0.963 0.912,0 1.643,-0.315 2.195,-0.943 0.565,-0.629 0.847,-1.489 0.847,-2.58 v -1.406 c 0,-1.001 -0.276,-1.829 -0.828,-2.483 -0.552,-0.655 -1.302,-0.982 -2.252,-0.982 -0.95,0 -1.701,0.327 -2.253,0.982 -0.552,0.654 -0.828,1.508 -0.828,2.56 z m 10.993,14.285 c 0,-1.681 0.533,-3.061 1.598,-4.139 1.079,-1.091 2.458,-1.637 4.14,-1.637 1.681,0 3.061,0.539 4.139,1.617 1.078,1.079 1.617,2.51 1.617,4.294 v 1.367 c 0,1.681 -0.539,3.067 -1.617,4.158 -1.065,1.078 -2.432,1.617 -4.101,1.617 -1.668,0 -3.048,-0.532 -4.139,-1.598 -1.091,-1.078 -1.637,-2.509 -1.637,-4.293 z m 2.657,1.502 c 0,1.014 0.283,1.848 0.847,2.502 0.565,0.642 1.322,0.963 2.272,0.963 0.924,0 1.662,-0.314 2.214,-0.943 0.552,-0.642 0.828,-1.508 0.828,-2.599 v -1.425 c 0,-1.014 -0.282,-1.842 -0.847,-2.484 -0.552,-0.641 -1.296,-0.962 -2.233,-0.962 -0.912,0 -1.656,0.321 -2.234,0.962 -0.564,0.629 -0.847,1.483 -0.847,2.561 z m -9.722,3.253 -2.022,-1.27 13.689,-21.909 2.021,1.27 z"
     fill="#ef2a82"
     id="path16" />
  <path
     d="m 453.8,178.157 c 0,-0.931 0.181,-1.769 0.545,-2.513 0.369,-0.745 0.879,-1.319 1.529,-1.723 0.656,-0.404 1.403,-0.607 2.241,-0.607 1.295,0 2.341,0.449 3.138,1.345 0.803,0.897 1.204,2.089 1.204,3.577 v 0.115 c 0,0.925 -0.179,1.757 -0.536,2.496 -0.352,0.732 -0.859,1.303 -1.521,1.714 -0.656,0.41 -1.412,0.615 -2.267,0.615 -1.289,0 -2.335,-0.448 -3.138,-1.345 -0.797,-0.896 -1.195,-2.083 -1.195,-3.56 z m 1.635,0.194 c 0,1.054 0.243,1.901 0.729,2.54 0.492,0.638 1.148,0.958 1.969,0.958 0.826,0 1.482,-0.323 1.969,-0.967 0.486,-0.651 0.729,-1.559 0.729,-2.725 0,-1.043 -0.249,-1.886 -0.747,-2.531 -0.492,-0.65 -1.148,-0.976 -1.969,-0.976 -0.803,0 -1.45,0.32 -1.942,0.958 -0.492,0.639 -0.738,1.553 -0.738,2.743 z m 17.094,0 c 0,1.447 -0.331,2.613 -0.993,3.498 -0.662,0.884 -1.558,1.327 -2.689,1.327 -1.155,0 -2.063,-0.366 -2.725,-1.099 v 4.579 h -1.626 V 173.49 h 1.485 l 0.08,1.055 c 0.662,-0.82 1.582,-1.231 2.759,-1.231 1.143,0 2.045,0.431 2.707,1.292 0.668,0.862 1.002,2.06 1.002,3.595 z m -1.626,-0.185 c 0,-1.072 -0.228,-1.919 -0.685,-2.54 -0.457,-0.621 -1.084,-0.932 -1.881,-0.932 -0.984,0 -1.723,0.437 -2.215,1.31 v 4.544 c 0.486,0.867 1.231,1.301 2.232,1.301 0.78,0 1.398,-0.308 1.855,-0.923 0.463,-0.621 0.694,-1.541 0.694,-2.76 z m 5.907,-6.978 v 2.302 h 1.775 v 1.257 h -1.775 v 5.898 c 0,0.38 0.079,0.667 0.237,0.861 0.158,0.187 0.428,0.281 0.808,0.281 0.188,0 0.446,-0.035 0.774,-0.105 V 183 c -0.428,0.117 -0.844,0.176 -1.248,0.176 -0.727,0 -1.275,-0.22 -1.644,-0.659 -0.369,-0.44 -0.553,-1.064 -0.553,-1.872 v -5.898 h -1.732 v -1.257 h 1.732 v -2.302 z M 482.259,183 h -1.626 v -9.51 h 1.626 z m -1.758,-12.032 c 0,-0.264 0.079,-0.487 0.237,-0.668 0.164,-0.182 0.405,-0.273 0.721,-0.273 0.316,0 0.557,0.091 0.721,0.273 0.164,0.181 0.246,0.404 0.246,0.668 0,0.263 -0.082,0.483 -0.246,0.659 -0.164,0.176 -0.405,0.264 -0.721,0.264 -0.316,0 -0.557,-0.088 -0.721,-0.264 -0.158,-0.176 -0.237,-0.396 -0.237,-0.659 z m 3.937,7.189 c 0,-0.931 0.182,-1.769 0.545,-2.513 0.37,-0.745 0.879,-1.319 1.53,-1.723 0.656,-0.404 1.403,-0.607 2.241,-0.607 1.295,0 2.341,0.449 3.138,1.345 0.802,0.897 1.204,2.089 1.204,3.577 v 0.115 c 0,0.925 -0.179,1.757 -0.536,2.496 -0.352,0.732 -0.859,1.303 -1.521,1.714 -0.656,0.41 -1.412,0.615 -2.268,0.615 -1.289,0 -2.334,-0.448 -3.137,-1.345 -0.797,-0.896 -1.196,-2.083 -1.196,-3.56 z m 1.635,0.194 c 0,1.054 0.243,1.901 0.73,2.54 0.492,0.638 1.148,0.958 1.968,0.958 0.827,0 1.483,-0.323 1.969,-0.967 0.487,-0.651 0.73,-1.559 0.73,-2.725 0,-1.043 -0.249,-1.886 -0.747,-2.531 -0.493,-0.65 -1.149,-0.976 -1.969,-0.976 -0.803,0 -1.45,0.32 -1.942,0.958 -0.493,0.639 -0.739,1.553 -0.739,2.743 z m 10.6,-4.861 0.053,1.196 c 0.726,-0.915 1.675,-1.372 2.847,-1.372 2.01,0 3.024,1.134 3.041,3.402 V 183 h -1.626 v -6.293 c -0.006,-0.686 -0.164,-1.192 -0.474,-1.52 -0.305,-0.329 -0.783,-0.493 -1.433,-0.493 -0.527,0 -0.99,0.141 -1.389,0.422 -0.398,0.281 -0.709,0.651 -0.931,1.108 V 183 h -1.626 v -9.51 z m 18.035,9.51 h -1.635 v -10.837 l -3.278,1.204 v -1.476 l 4.658,-1.749 h 0.255 z"
     fill="#8794ba"
     id="path18" />
  <path
     d="M 473.696,264 H 455.33 v -2.561 l 9.703,-10.781 c 1.437,-1.63 2.425,-2.952 2.964,-3.966 0.552,-1.027 0.828,-2.085 0.828,-3.176 0,-1.464 -0.442,-2.664 -1.328,-3.601 -0.886,-0.936 -2.066,-1.405 -3.542,-1.405 -1.772,0 -3.151,0.507 -4.14,1.521 -0.975,1.001 -1.463,2.4 -1.463,4.197 h -3.562 c 0,-2.58 0.828,-4.666 2.484,-6.257 1.669,-1.592 3.895,-2.387 6.681,-2.387 2.605,0 4.665,0.686 6.179,2.06 1.515,1.36 2.272,3.176 2.272,5.448 0,2.76 -1.758,6.045 -5.275,9.857 l -7.508,8.144 h 14.073 z m 17.423,-12.321 c -0.744,0.885 -1.636,1.598 -2.676,2.137 -1.026,0.539 -2.156,0.808 -3.388,0.808 -1.617,0 -3.029,-0.398 -4.236,-1.193 -1.193,-0.796 -2.117,-1.913 -2.772,-3.35 -0.654,-1.451 -0.982,-3.049 -0.982,-4.794 0,-1.874 0.353,-3.562 1.059,-5.064 0.719,-1.501 1.733,-2.65 3.042,-3.446 1.309,-0.795 2.837,-1.193 4.582,-1.193 2.772,0 4.954,1.039 6.546,3.119 1.604,2.066 2.406,4.89 2.406,8.471 v 1.039 c 0,5.455 -1.078,9.44 -3.234,11.956 -2.156,2.503 -5.41,3.786 -9.761,3.85 h -0.693 v -3.003 h 0.751 c 2.939,-0.051 5.198,-0.815 6.777,-2.291 1.578,-1.489 2.438,-3.838 2.579,-7.046 z m -5.486,0 c 1.193,0 2.291,-0.366 3.292,-1.098 1.014,-0.731 1.752,-1.636 2.214,-2.714 v -1.425 c 0,-2.336 -0.507,-4.236 -1.521,-5.699 -1.014,-1.463 -2.298,-2.194 -3.851,-2.194 -1.566,0 -2.823,0.603 -3.773,1.809 -0.95,1.194 -1.425,2.773 -1.425,4.736 0,1.913 0.456,3.491 1.367,4.736 0.924,1.232 2.156,1.849 3.697,1.849 z m 13.669,-10.32 c 0,-1.681 0.532,-3.067 1.598,-4.158 1.078,-1.091 2.457,-1.637 4.139,-1.637 1.707,0 3.087,0.552 4.139,1.656 1.065,1.091 1.598,2.509 1.598,4.255 v 1.367 c 0,1.694 -0.539,3.08 -1.617,4.158 -1.066,1.066 -2.426,1.598 -4.082,1.598 -1.668,0 -3.048,-0.532 -4.139,-1.598 -1.091,-1.078 -1.636,-2.509 -1.636,-4.293 z m 2.656,1.483 c 0,1.001 0.283,1.829 0.848,2.483 0.564,0.642 1.322,0.963 2.271,0.963 0.912,0 1.643,-0.315 2.195,-0.943 0.565,-0.629 0.847,-1.489 0.847,-2.58 v -1.406 c 0,-1.001 -0.276,-1.829 -0.828,-2.483 -0.552,-0.655 -1.302,-0.982 -2.252,-0.982 -0.95,0 -1.701,0.327 -2.253,0.982 -0.552,0.654 -0.828,1.508 -0.828,2.56 z m 10.993,14.285 c 0,-1.681 0.533,-3.061 1.598,-4.139 1.079,-1.091 2.458,-1.637 4.14,-1.637 1.681,0 3.061,0.539 4.139,1.617 1.078,1.079 1.617,2.51 1.617,4.294 v 1.367 c 0,1.681 -0.539,3.067 -1.617,4.158 -1.065,1.078 -2.432,1.617 -4.101,1.617 -1.668,0 -3.048,-0.532 -4.139,-1.598 -1.091,-1.078 -1.637,-2.509 -1.637,-4.293 z m 2.657,1.502 c 0,1.014 0.283,1.848 0.847,2.502 0.565,0.642 1.322,0.963 2.272,0.963 0.924,0 1.662,-0.314 2.214,-0.943 0.552,-0.642 0.828,-1.508 0.828,-2.599 v -1.425 c 0,-1.014 -0.282,-1.842 -0.847,-2.484 -0.552,-0.641 -1.296,-0.962 -2.233,-0.962 -0.912,0 -1.656,0.321 -2.234,0.962 -0.564,0.629 -0.847,1.483 -0.847,2.561 z m -9.722,3.253 -2.022,-1.27 13.689,-21.909 2.021,1.27 z"
     fill="#0088f0"
     id="path20" />
  <path
     d="m 453.8,290.157 c 0,-0.931 0.181,-1.769 0.545,-2.513 0.369,-0.745 0.879,-1.319 1.529,-1.723 0.656,-0.404 1.403,-0.607 2.241,-0.607 1.295,0 2.341,0.449 3.138,1.345 0.803,0.897 1.204,2.089 1.204,3.577 v 0.115 c 0,0.925 -0.179,1.757 -0.536,2.496 -0.352,0.732 -0.859,1.303 -1.521,1.714 -0.656,0.41 -1.412,0.615 -2.267,0.615 -1.289,0 -2.335,-0.448 -3.138,-1.345 -0.797,-0.896 -1.195,-2.083 -1.195,-3.56 z m 1.635,0.194 c 0,1.054 0.243,1.901 0.729,2.54 0.492,0.638 1.148,0.958 1.969,0.958 0.826,0 1.482,-0.323 1.969,-0.967 0.486,-0.651 0.729,-1.559 0.729,-2.725 0,-1.043 -0.249,-1.886 -0.747,-2.531 -0.492,-0.65 -1.148,-0.976 -1.969,-0.976 -0.803,0 -1.45,0.32 -1.942,0.958 -0.492,0.639 -0.738,1.553 -0.738,2.743 z m 17.094,0 c 0,1.447 -0.331,2.613 -0.993,3.498 -0.662,0.884 -1.558,1.327 -2.689,1.327 -1.155,0 -2.063,-0.366 -2.725,-1.099 v 4.579 h -1.626 V 285.49 h 1.485 l 0.08,1.055 c 0.662,-0.82 1.582,-1.231 2.759,-1.231 1.143,0 2.045,0.431 2.707,1.292 0.668,0.862 1.002,2.06 1.002,3.595 z m -1.626,-0.185 c 0,-1.072 -0.228,-1.919 -0.685,-2.54 -0.457,-0.621 -1.084,-0.932 -1.881,-0.932 -0.984,0 -1.723,0.437 -2.215,1.31 v 4.544 c 0.486,0.867 1.231,1.301 2.232,1.301 0.78,0 1.398,-0.308 1.855,-0.923 0.463,-0.621 0.694,-1.541 0.694,-2.76 z m 5.907,-6.978 v 2.302 h 1.775 v 1.257 h -1.775 v 5.898 c 0,0.38 0.079,0.667 0.237,0.861 0.158,0.187 0.428,0.281 0.808,0.281 0.188,0 0.446,-0.035 0.774,-0.105 V 295 c -0.428,0.117 -0.844,0.176 -1.248,0.176 -0.727,0 -1.275,-0.22 -1.644,-0.659 -0.369,-0.44 -0.553,-1.064 -0.553,-1.872 v -5.898 h -1.732 v -1.257 h 1.732 v -2.302 z M 482.259,295 h -1.626 v -9.51 h 1.626 z m -1.758,-12.032 c 0,-0.264 0.079,-0.487 0.237,-0.668 0.164,-0.182 0.405,-0.273 0.721,-0.273 0.316,0 0.557,0.091 0.721,0.273 0.164,0.181 0.246,0.404 0.246,0.668 0,0.263 -0.082,0.483 -0.246,0.659 -0.164,0.176 -0.405,0.264 -0.721,0.264 -0.316,0 -0.557,-0.088 -0.721,-0.264 -0.158,-0.176 -0.237,-0.396 -0.237,-0.659 z m 3.937,7.189 c 0,-0.931 0.182,-1.769 0.545,-2.513 0.37,-0.745 0.879,-1.319 1.53,-1.723 0.656,-0.404 1.403,-0.607 2.241,-0.607 1.295,0 2.341,0.449 3.138,1.345 0.802,0.897 1.204,2.089 1.204,3.577 v 0.115 c 0,0.925 -0.179,1.757 -0.536,2.496 -0.352,0.732 -0.859,1.303 -1.521,1.714 -0.656,0.41 -1.412,0.615 -2.268,0.615 -1.289,0 -2.334,-0.448 -3.137,-1.345 -0.797,-0.896 -1.196,-2.083 -1.196,-3.56 z m 1.635,0.194 c 0,1.054 0.243,1.901 0.73,2.54 0.492,0.638 1.148,0.958 1.968,0.958 0.827,0 1.483,-0.323 1.969,-0.967 0.487,-0.651 0.73,-1.559 0.73,-2.725 0,-1.043 -0.249,-1.886 -0.747,-2.531 -0.493,-0.65 -1.149,-0.976 -1.969,-0.976 -0.803,0 -1.45,0.32 -1.942,0.958 -0.493,0.639 -0.739,1.553 -0.739,2.743 z m 10.6,-4.861 0.053,1.196 c 0.726,-0.915 1.675,-1.372 2.847,-1.372 2.01,0 3.024,1.134 3.041,3.402 V 295 h -1.626 v -6.293 c -0.006,-0.686 -0.164,-1.192 -0.474,-1.52 -0.305,-0.329 -0.783,-0.493 -1.433,-0.493 -0.527,0 -0.99,0.141 -1.389,0.422 -0.398,0.281 -0.709,0.651 -0.931,1.108 V 295 h -1.626 v -9.51 z m 21.076,9.51 h -8.385 v -1.169 l 4.43,-4.922 c 0.656,-0.744 1.107,-1.347 1.353,-1.81 0.252,-0.469 0.378,-0.953 0.378,-1.451 0,-0.668 -0.202,-1.215 -0.606,-1.643 -0.404,-0.428 -0.943,-0.642 -1.617,-0.642 -0.809,0 -1.439,0.232 -1.89,0.695 -0.445,0.457 -0.668,1.095 -0.668,1.916 h -1.626 c 0,-1.178 0.378,-2.13 1.134,-2.857 0.762,-0.726 1.778,-1.09 3.05,-1.09 1.189,0 2.13,0.314 2.821,0.941 0.691,0.621 1.037,1.45 1.037,2.487 0,1.26 -0.803,2.76 -2.408,4.5 l -3.428,3.718 h 6.425 z"
     fill="#8794ba"
     id="path22" />
  <path
     d="m 209.637,64 h -1.09 v -7.2246 l -2.186,0.8027 v -0.9843 l 3.106,-1.1661 h 0.17 z m 8.349,-6.3047 c 0,0.4258 -0.113,0.8047 -0.34,1.1367 -0.222,0.3321 -0.525,0.5918 -0.908,0.7793 0.446,0.1914 0.797,0.4707 1.055,0.8379 0.262,0.3672 0.393,0.7832 0.393,1.2481 0,0.7382 -0.25,1.3261 -0.75,1.7636 -0.497,0.4375 -1.151,0.6563 -1.963,0.6563 -0.821,0 -1.479,-0.2188 -1.975,-0.6563 -0.492,-0.4414 -0.738,-1.0293 -0.738,-1.7636 0,-0.461 0.125,-0.877 0.375,-1.2481 0.254,-0.3711 0.603,-0.6523 1.049,-0.8437 -0.379,-0.1875 -0.678,-0.4473 -0.897,-0.7793 -0.219,-0.3321 -0.328,-0.709 -0.328,-1.1309 0,-0.7187 0.23,-1.2891 0.691,-1.7109 0.461,-0.4219 1.069,-0.6328 1.823,-0.6328 0.75,0 1.355,0.2109 1.816,0.6328 0.465,0.4218 0.697,0.9922 0.697,1.7109 z m -0.884,3.9785 c 0,-0.4765 -0.153,-0.8652 -0.457,-1.166 -0.301,-0.3008 -0.696,-0.4512 -1.184,-0.4512 -0.488,0 -0.881,0.1485 -1.178,0.4454 -0.293,0.2968 -0.439,0.6875 -0.439,1.1718 0,0.4844 0.142,0.8653 0.427,1.1426 0.29,0.2774 0.69,0.416 1.202,0.416 0.507,0 0.906,-0.1386 1.195,-0.416 0.289,-0.2812 0.434,-0.6621 0.434,-1.1426 z m -1.629,-5.4316 c -0.426,0 -0.772,0.1328 -1.037,0.3984 -0.262,0.2617 -0.393,0.6192 -0.393,1.0723 0,0.4336 0.129,0.7851 0.387,1.0547 0.261,0.2656 0.609,0.3984 1.043,0.3984 0.433,0 0.779,-0.1328 1.037,-0.3984 0.261,-0.2696 0.392,-0.6211 0.392,-1.0547 0,-0.4336 -0.134,-0.7871 -0.404,-1.0606 -0.269,-0.2734 -0.611,-0.4101 -1.025,-0.4101 z m 6.445,4.5762 h -2.859 v -0.8848 h 2.859 z M 228.457,64 h -5.59 v -0.7793 l 2.953,-3.2812 c 0.438,-0.4961 0.739,-0.8985 0.903,-1.2071 0.168,-0.3125 0.252,-0.6347 0.252,-0.9668 0,-0.4453 -0.135,-0.8105 -0.405,-1.0957 -0.269,-0.2851 -0.629,-0.4277 -1.078,-0.4277 -0.539,0 -0.959,0.1543 -1.26,0.4629 -0.296,0.3047 -0.445,0.7304 -0.445,1.2773 h -1.084 c 0,-0.7851 0.252,-1.4199 0.756,-1.9043 0.508,-0.4843 1.186,-0.7265 2.033,-0.7265 0.793,0 1.42,0.2089 1.881,0.6269 0.461,0.4141 0.691,0.9668 0.691,1.6582 0,0.8399 -0.535,1.8399 -1.605,3 l -2.285,2.4785 h 4.283 z m 5.725,-2.8652 h 1.183 v 0.8847 h -1.183 V 64 h -1.09 v -1.9805 h -3.885 v -0.6386 l 3.82,-5.9121 h 1.155 z m -3.744,0 h 2.654 v -4.1836 l -0.129,0.2343 z"
     fill="#8794ba"
     id="path24" />
  <path
     d="m 352.664,142 h -5.59 v -0.779 l 2.953,-3.282 c 0.438,-0.496 0.739,-0.898 0.903,-1.207 0.168,-0.312 0.252,-0.634 0.252,-0.966 0,-0.446 -0.135,-0.811 -0.405,-1.096 -0.269,-0.285 -0.629,-0.428 -1.078,-0.428 -0.539,0 -0.959,0.154 -1.26,0.463 -0.296,0.305 -0.445,0.731 -0.445,1.277 h -1.084 c 0,-0.785 0.252,-1.42 0.756,-1.904 0.508,-0.484 1.186,-0.726 2.033,-0.726 0.793,0 1.42,0.209 1.881,0.627 0.461,0.414 0.691,0.966 0.691,1.658 0,0.84 -0.535,1.84 -1.605,3 l -2.285,2.478 h 4.283 z m 1.647,-4.277 0.433,-4.254 h 4.371 v 1.002 h -3.451 l -0.258,2.326 c 0.418,-0.246 0.893,-0.369 1.424,-0.369 0.777,0 1.395,0.258 1.852,0.773 0.457,0.512 0.685,1.205 0.685,2.08 0,0.879 -0.238,1.573 -0.715,2.08 -0.472,0.504 -1.134,0.756 -1.986,0.756 -0.754,0 -1.369,-0.209 -1.846,-0.627 -0.476,-0.418 -0.748,-0.996 -0.814,-1.734 h 1.025 c 0.067,0.488 0.24,0.857 0.522,1.107 0.281,0.246 0.652,0.369 1.113,0.369 0.504,0 0.898,-0.171 1.184,-0.515 0.289,-0.344 0.433,-0.819 0.433,-1.424 0,-0.57 -0.156,-1.027 -0.469,-1.371 -0.308,-0.348 -0.72,-0.522 -1.236,-0.522 -0.473,0 -0.844,0.104 -1.113,0.311 l -0.287,0.234 z m 8.607,1.095 h -2.859 v -0.884 h 2.859 z m 2.525,-1.611 h 0.815 c 0.512,-0.008 0.914,-0.143 1.207,-0.404 0.293,-0.262 0.439,-0.615 0.439,-1.061 0,-1 -0.498,-1.5 -1.494,-1.5 -0.469,0 -0.844,0.135 -1.125,0.404 -0.277,0.266 -0.416,0.62 -0.416,1.061 h -1.084 c 0,-0.676 0.246,-1.236 0.738,-1.682 0.497,-0.449 1.125,-0.673 1.887,-0.673 0.805,0 1.436,0.212 1.893,0.638 0.457,0.426 0.685,1.018 0.685,1.776 0,0.371 -0.121,0.73 -0.363,1.078 -0.238,0.347 -0.564,0.607 -0.979,0.779 0.469,0.148 0.831,0.395 1.084,0.738 0.258,0.344 0.387,0.764 0.387,1.26 0,0.766 -0.25,1.373 -0.75,1.822 -0.5,0.45 -1.15,0.674 -1.951,0.674 -0.801,0 -1.453,-0.217 -1.957,-0.65 -0.5,-0.434 -0.75,-1.006 -0.75,-1.717 h 1.09 c 0,0.449 0.146,0.809 0.439,1.078 0.293,0.27 0.686,0.404 1.178,0.404 0.523,0 0.924,-0.136 1.201,-0.41 0.278,-0.273 0.416,-0.666 0.416,-1.177 0,-0.497 -0.152,-0.877 -0.457,-1.143 -0.305,-0.266 -0.744,-0.402 -1.318,-0.41 h -0.815 z m 9.739,1.928 h 1.183 v 0.885 h -1.183 V 142 h -1.09 v -1.98 h -3.885 v -0.639 l 3.82,-5.912 h 1.155 z m -3.744,0 h 2.654 v -4.184 l -0.129,0.235 z"
     fill="#8794ba"
     id="path26" />
  <path
     d="m 348.65,268.207 h 0.815 c 0.512,-0.008 0.914,-0.143 1.207,-0.404 0.293,-0.262 0.439,-0.615 0.439,-1.061 0,-1 -0.498,-1.5 -1.494,-1.5 -0.469,0 -0.844,0.135 -1.125,0.404 -0.277,0.266 -0.416,0.62 -0.416,1.061 h -1.084 c 0,-0.676 0.246,-1.236 0.738,-1.682 0.497,-0.449 1.125,-0.673 1.887,-0.673 0.805,0 1.436,0.212 1.893,0.638 0.457,0.426 0.685,1.018 0.685,1.776 0,0.371 -0.121,0.73 -0.363,1.078 -0.238,0.347 -0.564,0.607 -0.978,0.779 0.468,0.148 0.83,0.395 1.084,0.738 0.257,0.344 0.386,0.764 0.386,1.26 0,0.766 -0.25,1.373 -0.75,1.822 -0.5,0.45 -1.15,0.674 -1.951,0.674 -0.801,0 -1.453,-0.217 -1.957,-0.65 -0.5,-0.434 -0.75,-1.006 -0.75,-1.717 h 1.09 c 0,0.449 0.146,0.809 0.439,1.078 0.293,0.27 0.686,0.404 1.178,0.404 0.523,0 0.924,-0.136 1.201,-0.41 0.278,-0.273 0.416,-0.666 0.416,-1.177 0,-0.497 -0.152,-0.877 -0.457,-1.143 -0.304,-0.266 -0.744,-0.402 -1.318,-0.41 h -0.815 z m 5.661,0.516 0.433,-4.254 h 4.371 v 1.002 h -3.451 l -0.258,2.326 c 0.418,-0.246 0.893,-0.369 1.424,-0.369 0.777,0 1.395,0.258 1.852,0.773 0.457,0.512 0.685,1.205 0.685,2.08 0,0.879 -0.238,1.573 -0.715,2.08 -0.472,0.504 -1.134,0.756 -1.986,0.756 -0.754,0 -1.369,-0.209 -1.846,-0.627 -0.476,-0.418 -0.748,-0.996 -0.814,-1.734 h 1.025 c 0.067,0.488 0.24,0.857 0.522,1.107 0.281,0.246 0.652,0.369 1.113,0.369 0.504,0 0.898,-0.171 1.184,-0.515 0.289,-0.344 0.433,-0.819 0.433,-1.424 0,-0.57 -0.156,-1.027 -0.469,-1.371 -0.308,-0.348 -0.72,-0.522 -1.236,-0.522 -0.473,0 -0.844,0.104 -1.113,0.311 l -0.287,0.234 z m 8.607,1.095 h -2.859 v -0.884 h 2.859 z m 5.525,0.317 h 1.184 v 0.885 h -1.184 V 273 h -1.089 v -1.98 h -3.885 v -0.639 l 3.82,-5.912 h 1.154 z m -3.744,0 h 2.655 v -4.184 l -0.129,0.235 z m 10.483,0 h 1.183 v 0.885 h -1.183 V 273 h -1.09 v -1.98 h -3.885 v -0.639 l 3.82,-5.912 h 1.155 z m -3.744,0 h 2.654 v -4.184 l -0.129,0.235 z"
     fill="#8794ba"
     id="path28" />
  <path
     d="m 210.65,355.135 h 1.184 v 0.885 H 210.65 V 358 h -1.089 v -1.98 h -3.885 v -0.639 l 3.82,-5.912 h 1.154 z m -3.744,0 h 2.655 v -4.184 l -0.129,0.235 z m 6.405,-1.412 0.433,-4.254 h 4.371 v 1.002 h -3.451 l -0.258,2.326 c 0.418,-0.246 0.893,-0.369 1.424,-0.369 0.777,0 1.395,0.258 1.852,0.773 0.457,0.512 0.685,1.205 0.685,2.08 0,0.879 -0.238,1.573 -0.715,2.08 -0.472,0.504 -1.134,0.756 -1.986,0.756 -0.754,0 -1.369,-0.209 -1.846,-0.627 -0.476,-0.418 -0.748,-0.996 -0.814,-1.734 h 1.025 c 0.067,0.488 0.24,0.857 0.522,1.107 0.281,0.246 0.652,0.369 1.113,0.369 0.504,0 0.898,-0.171 1.184,-0.515 0.289,-0.344 0.433,-0.819 0.433,-1.424 0,-0.57 -0.156,-1.027 -0.469,-1.371 -0.308,-0.348 -0.72,-0.522 -1.236,-0.522 -0.473,0 -0.844,0.104 -1.113,0.311 l -0.287,0.234 z m 8.607,1.095 h -2.859 v -0.884 h 2.859 z m 1.447,-1.095 0.434,-4.254 h 4.371 v 1.002 h -3.451 l -0.258,2.326 c 0.418,-0.246 0.893,-0.369 1.424,-0.369 0.777,0 1.394,0.258 1.851,0.773 0.457,0.512 0.686,1.205 0.686,2.08 0,0.879 -0.238,1.573 -0.715,2.08 -0.473,0.504 -1.135,0.756 -1.986,0.756 -0.754,0 -1.369,-0.209 -1.846,-0.627 -0.477,-0.418 -0.748,-0.996 -0.814,-1.734 h 1.025 c 0.066,0.488 0.24,0.857 0.521,1.107 0.282,0.246 0.653,0.369 1.114,0.369 0.504,0 0.898,-0.171 1.183,-0.515 0.289,-0.344 0.434,-0.819 0.434,-1.424 0,-0.57 -0.156,-1.027 -0.469,-1.371 -0.308,-0.348 -0.721,-0.522 -1.236,-0.522 -0.473,0 -0.844,0.104 -1.113,0.311 l -0.288,0.234 z m 10.817,1.412 h 1.183 v 0.885 h -1.183 V 358 h -1.09 v -1.98 h -3.885 v -0.639 l 3.82,-5.912 h 1.155 z m -3.744,0 h 2.654 v -4.184 l -0.129,0.235 z"
     fill="#8794ba"
     id="path30" />
  <path
     d="m 65.572,268.723 0.434,-4.254 h 4.371 v 1.002 h -3.451 l -0.258,2.326 c 0.418,-0.246 0.893,-0.369 1.424,-0.369 0.777,0 1.394,0.258 1.851,0.773 0.457,0.512 0.686,1.205 0.686,2.08 0,0.879 -0.238,1.573 -0.715,2.08 -0.473,0.504 -1.135,0.756 -1.986,0.756 -0.754,0 -1.369,-0.209 -1.846,-0.627 -0.477,-0.418 -0.748,-0.996 -0.814,-1.734 h 1.025 c 0.066,0.488 0.24,0.857 0.521,1.107 0.282,0.246 0.653,0.369 1.114,0.369 0.504,0 0.898,-0.171 1.183,-0.515 0.289,-0.344 0.434,-0.819 0.434,-1.424 0,-0.57 -0.156,-1.027 -0.469,-1.371 -0.308,-0.348 -0.721,-0.522 -1.236,-0.522 -0.473,0 -0.844,0.104 -1.113,0.311 l -0.288,0.234 z m 6.739,0 0.433,-4.254 h 4.371 v 1.002 h -3.451 l -0.258,2.326 c 0.418,-0.246 0.893,-0.369 1.424,-0.369 0.777,0 1.395,0.258 1.852,0.773 0.457,0.512 0.685,1.205 0.685,2.08 0,0.879 -0.238,1.573 -0.715,2.08 -0.472,0.504 -1.134,0.756 -1.986,0.756 -0.754,0 -1.369,-0.209 -1.846,-0.627 -0.476,-0.418 -0.748,-0.996 -0.814,-1.734 h 1.025 c 0.067,0.488 0.24,0.857 0.522,1.107 0.281,0.246 0.652,0.369 1.113,0.369 0.504,0 0.898,-0.171 1.184,-0.515 0.289,-0.344 0.433,-0.819 0.433,-1.424 0,-0.57 -0.156,-1.027 -0.469,-1.371 -0.308,-0.348 -0.72,-0.522 -1.236,-0.522 -0.473,0 -0.844,0.104 -1.113,0.311 l -0.287,0.234 z m 8.607,1.095 h -2.859 v -0.884 h 2.859 z m 5.203,-5.355 v 0.92 h -0.199 c -0.844,0.015 -1.516,0.265 -2.016,0.75 -0.5,0.484 -0.789,1.166 -0.867,2.045 0.449,-0.516 1.063,-0.774 1.84,-0.774 0.742,0 1.334,0.262 1.775,0.785 0.446,0.524 0.668,1.2 0.668,2.028 0,0.879 -0.24,1.582 -0.72,2.109 -0.477,0.528 -1.118,0.791 -1.922,0.791 -0.817,0 -1.479,-0.312 -1.987,-0.937 -0.507,-0.629 -0.761,-1.438 -0.761,-2.426 v -0.416 c 0,-1.57 0.334,-2.77 1.002,-3.598 0.671,-0.832 1.67,-1.258 2.994,-1.277 z m -1.424,3.844 c -0.371,0 -0.713,0.111 -1.025,0.334 -0.313,0.222 -0.529,0.502 -0.651,0.838 v 0.398 c 0,0.703 0.159,1.269 0.475,1.699 0.316,0.43 0.711,0.645 1.184,0.645 0.488,0 0.871,-0.18 1.148,-0.539 0.281,-0.36 0.422,-0.83 0.422,-1.412 0,-0.586 -0.143,-1.059 -0.428,-1.418 -0.281,-0.364 -0.656,-0.545 -1.125,-0.545 z m 8.485,1.828 h 1.183 v 0.885 H 93.182 V 273 h -1.09 v -1.98 h -3.885 v -0.639 l 3.82,-5.912 h 1.155 z m -3.744,0 h 2.654 v -4.184 l -0.129,0.235 z"
     fill="#8794ba"
     id="path32" />
  <path
     d="m 74.32,133.463 v 0.92 h -0.199 c -0.844,0.015 -1.516,0.265 -2.016,0.75 -0.5,0.484 -0.789,1.166 -0.867,2.045 0.45,-0.516 1.063,-0.774 1.84,-0.774 0.742,0 1.334,0.262 1.776,0.785 0.445,0.524 0.667,1.2 0.667,2.028 0,0.879 -0.24,1.582 -0.72,2.109 -0.477,0.528 -1.117,0.791 -1.922,0.791 -0.817,0 -1.479,-0.312 -1.986,-0.937 -0.508,-0.629 -0.762,-1.438 -0.762,-2.426 v -0.416 c 0,-1.57 0.334,-2.77 1.002,-3.598 0.672,-0.832 1.67,-1.258 2.994,-1.277 z m -1.424,3.844 c -0.371,0 -0.712,0.111 -1.025,0.334 -0.312,0.222 -0.529,0.502 -0.65,0.838 v 0.398 c 0,0.703 0.158,1.269 0.474,1.699 0.317,0.43 0.711,0.645 1.184,0.645 0.488,0 0.871,-0.18 1.148,-0.539 0.282,-0.36 0.422,-0.83 0.422,-1.412 0,-0.586 -0.142,-1.059 -0.428,-1.418 -0.281,-0.364 -0.656,-0.545 -1.125,-0.545 z m 4.407,0.416 0.433,-4.254 h 4.371 v 1.002 h -3.451 l -0.258,2.326 c 0.418,-0.246 0.893,-0.369 1.424,-0.369 0.778,0 1.395,0.258 1.852,0.773 0.457,0.512 0.685,1.205 0.685,2.08 0,0.879 -0.238,1.573 -0.714,2.08 -0.473,0.504 -1.135,0.756 -1.987,0.756 -0.754,0 -1.369,-0.209 -1.846,-0.627 -0.476,-0.418 -0.748,-0.996 -0.814,-1.734 h 1.025 c 0.067,0.488 0.241,0.857 0.522,1.107 0.281,0.246 0.652,0.369 1.113,0.369 0.504,0 0.899,-0.171 1.184,-0.515 0.289,-0.344 0.433,-0.819 0.433,-1.424 0,-0.57 -0.156,-1.027 -0.468,-1.371 -0.309,-0.348 -0.721,-0.522 -1.237,-0.522 -0.472,0 -0.843,0.104 -1.113,0.311 l -0.287,0.234 z m 9.457,-0.299 h 2.379 v 1.025 H 86.76 v 2.696 h -1.09 v -2.696 h -2.379 v -1.025 h 2.379 v -2.49 h 1.09 z"
     fill="#8794ba"
     id="path34" />
  <defs
     id="defs53">
    <filter
       id="filter0_d_535_1409"
       x="0"
       y="0"
       width="670"
       height="480"
       filterUnits="userSpaceOnUse"
       color-interpolation-filters="sRGB">
      <feFlood
         flood-opacity="0"
         result="BackgroundImageFix"
         id="feFlood36" />
      <feColorMatrix
         in="SourceAlpha"
         type="matrix"
         values="0 0 0 0 0 0 0 0 0 0 0 0 0 0 0 0 0 0 127 0"
         result="hardAlpha"
         id="feColorMatrix38" />
      <feMorphology
         radius="15"
         operator="erode"
         in="SourceAlpha"
         result="effect1_dropShadow_535_1409"
         id="feMorphology40" />
      <feOffset
         dy="18"
         id="feOffset42" />
      <feGaussianBlur
         stdDeviation="25"
         id="feGaussianBlur44" />
      <feColorMatrix
         type="matrix"
         values="0 0 0 0 0.0996452 0 0 0 0 0.164326 0 0 0 0 0.350284 0 0 0 0.2 0"
         id="feColorMatrix46" />
      <feBlend
         mode="normal"
         in2="BackgroundImageFix"
         result="effect1_dropShadow_535_1409"
         id="feBlend48" />
      <feBlend
         mode="normal"
         in="SourceGraphic"
         in2="effect1_dropShadow_535_1409"
         result="shape"
         id="feBlend50" />
    </filter>
  </defs>
</svg>
