<?xml version="1.0" encoding="UTF-8" standalone="no"?>
<svg
   width="361"
   height="246.683"
   viewBox="0 0 361 246.683"
   fill="none"
   version="1.1"
   id="svg41"
   sodipodi:docname="chart-1.svg"
   inkscape:version="1.1.1 (26b7af14f2, 2022-01-19)"
   xmlns:inkscape="http://www.inkscape.org/namespaces/inkscape"
   xmlns:sodipodi="http://sodipodi.sourceforge.net/DTD/sodipodi-0.dtd"
   xmlns="http://www.w3.org/2000/svg"
   xmlns:svg="http://www.w3.org/2000/svg">
  <sodipodi:namedview
     id="namedview43"
     pagecolor="#ffffff"
     bordercolor="#666666"
     borderopacity="1.0"
     inkscape:pageshadow="2"
     inkscape:pageopacity="0.0"
     inkscape:pagecheckerboard="0"
     showgrid="false"
     inkscape:zoom="1.3386728"
     inkscape:cx="71.339316"
     inkscape:cy="150.89573"
     inkscape:window-width="1908"
     inkscape:window-height="1017"
     inkscape:window-x="8"
     inkscape:window-y="1097"
     inkscape:window-maximized="0"
     inkscape:current-layer="svg41" />
  <g
     filter="url(#filter0_d_535_1065)"
     id="g4"
     transform="translate(-0.588203,-0.771788)" />
  <g
     id="g667"
     transform="translate(-38,-19)">
    <rect
       x="38"
       y="19"
       width="361"
       height="246.683"
       rx="32.041401"
       fill="#ffffff"
       id="rect2" />
    <path
       d="m 318.032,95.7342 -6.985,15.6608 H 308.8 l 6.962,-15.1048 h -9.128 v -1.7607 h 11.398 z m 10.645,8.2478 c -0.448,0.532 -0.985,0.961 -1.61,1.285 -0.618,0.325 -1.297,0.487 -2.039,0.487 -0.973,0 -1.822,-0.24 -2.548,-0.718 -0.718,-0.479 -1.274,-1.151 -1.668,-2.016 -0.394,-0.872 -0.591,-1.834 -0.591,-2.884 0,-1.1275 0.213,-2.143 0.637,-3.0465 0.433,-0.9035 1.043,-1.5947 1.83,-2.0734 0.788,-0.4788 1.707,-0.7182 2.757,-0.7182 1.668,0 2.981,0.6255 3.939,1.8765 0.965,1.2433 1.448,2.9422 1.448,5.0966 v 0.626 c 0,3.282 -0.649,5.679 -1.946,7.193 -1.298,1.506 -3.255,2.278 -5.873,2.317 h -0.417 V 109.6 h 0.452 c 1.768,-0.031 3.127,-0.491 4.077,-1.379 0.95,-0.896 1.467,-2.309 1.552,-4.239 z m -3.301,0 c 0.718,0 1.378,-0.22 1.981,-0.661 0.61,-0.44 1.054,-0.984 1.332,-1.633 v -0.857 c 0,-1.4055 -0.305,-2.5484 -0.915,-3.4288 -0.61,-0.8803 -1.383,-1.3205 -2.317,-1.3205 -0.942,0 -1.699,0.363 -2.27,1.0889 -0.572,0.7181 -0.858,1.668 -0.858,2.8494 0,1.151 0.274,2.101 0.823,2.85 0.556,0.741 1.297,1.112 2.224,1.112 z m 8.224,-6.2091 c 0,-1.0116 0.321,-1.8456 0.961,-2.502 0.649,-0.6564 1.479,-0.9846 2.491,-0.9846 1.027,0 1.857,0.3321 2.49,0.9962 0.641,0.6564 0.962,1.5097 0.962,2.5599 v 0.8224 c 0,1.0194 -0.325,1.8532 -0.973,2.5022 -0.641,0.641 -1.46,0.961 -2.456,0.961 -1.004,0 -1.834,-0.32 -2.49,-0.961 -0.657,-0.649 -0.985,-1.5099 -0.985,-2.5833 z m 1.599,0.8919 c 0,0.6024 0.169,1.1005 0.509,1.4942 0.34,0.386 0.796,0.579 1.367,0.579 0.548,0 0.989,-0.189 1.321,-0.567 0.339,-0.3787 0.509,-0.8961 0.509,-1.5525 v -0.8456 c 0,-0.6023 -0.166,-1.1004 -0.498,-1.4943 -0.332,-0.3938 -0.784,-0.5907 -1.355,-0.5907 -0.572,0 -1.023,0.1969 -1.355,0.5907 -0.332,0.3939 -0.498,0.9074 -0.498,1.5406 z m 6.614,8.5952 c 0,-1.012 0.32,-1.842 0.961,-2.491 0.649,-0.656 1.479,-0.984 2.491,-0.984 1.011,0 1.841,0.324 2.49,0.973 0.649,0.648 0.973,1.509 0.973,2.583 v 0.822 c 0,1.012 -0.324,1.846 -0.973,2.502 -0.641,0.649 -1.463,0.973 -2.467,0.973 -1.004,0 -1.834,-0.32 -2.491,-0.961 -0.656,-0.649 -0.984,-1.51 -0.984,-2.583 z m 1.598,0.903 c 0,0.61 0.17,1.112 0.51,1.506 0.34,0.386 0.795,0.579 1.367,0.579 0.556,0 1,-0.189 1.332,-0.567 0.332,-0.386 0.498,-0.908 0.498,-1.564 v -0.857 c 0,-0.61 -0.17,-1.108 -0.51,-1.495 -0.332,-0.386 -0.78,-0.579 -1.343,-0.579 -0.549,0 -0.997,0.193 -1.344,0.579 -0.34,0.379 -0.51,0.892 -0.51,1.541 z m -5.849,1.958 -1.217,-0.765 8.236,-13.1816 1.216,0.7645 z"
       fill="#0088f0"
       id="path6" />
    <path
       d="m 308.905,126.76 c 0,-0.561 0.109,-1.065 0.328,-1.513 0.222,-0.448 0.528,-0.793 0.92,-1.036 0.395,-0.244 0.844,-0.365 1.348,-0.365 0.779,0 1.409,0.27 1.888,0.809 0.483,0.539 0.725,1.257 0.725,2.152 v 0.069 c 0,0.557 -0.108,1.058 -0.323,1.502 -0.212,0.44 -0.516,0.784 -0.915,1.031 -0.395,0.247 -0.849,0.37 -1.364,0.37 -0.776,0 -1.405,-0.27 -1.888,-0.809 -0.479,-0.539 -0.719,-1.253 -0.719,-2.142 z m 0.983,0.116 c 0,0.635 0.147,1.144 0.439,1.528 0.296,0.384 0.691,0.577 1.185,0.577 0.497,0 0.892,-0.194 1.184,-0.582 0.293,-0.391 0.439,-0.938 0.439,-1.639 0,-0.628 -0.15,-1.136 -0.449,-1.523 -0.296,-0.392 -0.691,-0.587 -1.185,-0.587 -0.483,0 -0.872,0.192 -1.168,0.576 -0.297,0.384 -0.445,0.934 -0.445,1.65 z m 10.286,0 c 0,0.871 -0.199,1.572 -0.598,2.105 -0.398,0.532 -0.938,0.798 -1.618,0.798 -0.694,0 -1.241,-0.22 -1.639,-0.661 v 2.755 h -0.979 v -7.921 h 0.894 l 0.048,0.634 c 0.398,-0.493 0.952,-0.74 1.66,-0.74 0.688,0 1.231,0.259 1.629,0.777 0.402,0.518 0.603,1.239 0.603,2.163 z m -0.979,-0.111 c 0,-0.645 -0.137,-1.155 -0.412,-1.528 -0.275,-0.374 -0.652,-0.561 -1.132,-0.561 -0.592,0 -1.036,0.263 -1.332,0.788 v 2.734 c 0.292,0.522 0.74,0.783 1.343,0.783 0.469,0 0.841,-0.185 1.116,-0.556 0.278,-0.373 0.417,-0.927 0.417,-1.66 z m 3.554,-4.199 v 1.386 h 1.068 v 0.756 h -1.068 v 3.548 c 0,0.229 0.048,0.402 0.143,0.518 0.095,0.113 0.257,0.17 0.486,0.17 0.113,0 0.268,-0.022 0.466,-0.064 v 0.793 c -0.258,0.071 -0.508,0.106 -0.751,0.106 -0.437,0 -0.767,-0.132 -0.989,-0.397 -0.222,-0.264 -0.333,-0.639 -0.333,-1.126 v -3.548 h -1.042 v -0.756 h 1.042 v -1.386 z m 3.279,7.107 h -0.979 v -5.721 h 0.979 z m -1.058,-7.239 c 0,-0.159 0.048,-0.293 0.143,-0.402 0.099,-0.109 0.243,-0.164 0.433,-0.164 0.191,0 0.335,0.055 0.434,0.164 0.099,0.109 0.148,0.243 0.148,0.402 0,0.159 -0.049,0.291 -0.148,0.397 -0.099,0.105 -0.243,0.158 -0.434,0.158 -0.19,0 -0.334,-0.053 -0.433,-0.158 -0.095,-0.106 -0.143,-0.238 -0.143,-0.397 z m 2.369,4.326 c 0,-0.561 0.109,-1.065 0.328,-1.513 0.222,-0.448 0.529,-0.793 0.92,-1.036 0.395,-0.244 0.844,-0.365 1.349,-0.365 0.779,0 1.408,0.27 1.887,0.809 0.483,0.539 0.725,1.257 0.725,2.152 v 0.069 c 0,0.557 -0.108,1.058 -0.323,1.502 -0.211,0.44 -0.516,0.784 -0.915,1.031 -0.394,0.247 -0.849,0.37 -1.364,0.37 -0.775,0 -1.405,-0.27 -1.888,-0.809 -0.479,-0.539 -0.719,-1.253 -0.719,-2.142 z m 0.984,0.116 c 0,0.635 0.146,1.144 0.439,1.528 0.296,0.384 0.691,0.577 1.184,0.577 0.497,0 0.892,-0.194 1.185,-0.582 0.292,-0.391 0.439,-0.938 0.439,-1.639 0,-0.628 -0.15,-1.136 -0.45,-1.523 -0.296,-0.392 -0.691,-0.587 -1.184,-0.587 -0.483,0 -0.873,0.192 -1.169,0.576 -0.296,0.384 -0.444,0.934 -0.444,1.65 z m 6.377,-2.924 0.032,0.719 c 0.437,-0.55 1.008,-0.825 1.713,-0.825 1.209,0 1.819,0.682 1.83,2.046 v 3.781 h -0.978 v -3.786 c -0.004,-0.412 -0.099,-0.717 -0.286,-0.915 -0.183,-0.197 -0.471,-0.296 -0.862,-0.296 -0.317,0 -0.596,0.085 -0.835,0.254 -0.24,0.169 -0.427,0.391 -0.561,0.666 v 4.077 h -0.978 v -5.721 z m 10.851,5.721 h -0.983 v -6.52 l -1.973,0.725 v -0.889 l 2.803,-1.052 h 0.153 z"
       fill="#8794ba"
       id="path8" />
    <path
       d="m 317.372,166.318 c 0,0.842 -0.224,1.591 -0.672,2.247 -0.44,0.656 -1.039,1.17 -1.796,1.541 0.881,0.378 1.576,0.93 2.085,1.656 0.518,0.726 0.776,1.548 0.776,2.467 0,1.46 -0.494,2.622 -1.482,3.487 -0.981,0.865 -2.274,1.297 -3.881,1.297 -1.621,0 -2.923,-0.432 -3.903,-1.297 -0.973,-0.873 -1.46,-2.035 -1.46,-3.487 0,-0.911 0.247,-1.733 0.742,-2.467 0.502,-0.733 1.193,-1.29 2.073,-1.668 -0.749,-0.371 -1.34,-0.884 -1.772,-1.54 -0.433,-0.657 -0.649,-1.402 -0.649,-2.236 0,-1.421 0.456,-2.548 1.367,-3.382 0.911,-0.834 2.112,-1.251 3.602,-1.251 1.483,0 2.68,0.417 3.591,1.251 0.919,0.834 1.379,1.961 1.379,3.382 z m -1.749,7.865 c 0,-0.942 -0.302,-1.71 -0.904,-2.305 -0.595,-0.595 -1.375,-0.892 -2.34,-0.892 -0.965,0 -1.741,0.293 -2.328,0.88 -0.579,0.587 -0.869,1.359 -0.869,2.317 0,0.958 0.282,1.711 0.846,2.259 0.571,0.548 1.363,0.822 2.374,0.822 1.004,0 1.792,-0.274 2.363,-0.822 0.572,-0.556 0.858,-1.309 0.858,-2.259 z m -3.221,-10.738 c -0.841,0 -1.525,0.263 -2.05,0.788 -0.517,0.517 -0.776,1.224 -0.776,2.12 0,0.857 0.255,1.552 0.765,2.085 0.517,0.525 1.204,0.787 2.061,0.787 0.858,0 1.541,-0.262 2.051,-0.787 0.517,-0.533 0.776,-1.228 0.776,-2.085 0,-0.858 -0.267,-1.556 -0.8,-2.097 -0.532,-0.541 -1.208,-0.811 -2.027,-0.811 z m 18.951,-0.324 -6.985,15.661 h -2.247 l 6.961,-15.105 h -9.127 v -1.761 h 11.398 z m 2.247,2.039 c 0,-1.012 0.321,-1.846 0.961,-2.502 0.649,-0.657 1.479,-0.985 2.491,-0.985 1.027,0 1.857,0.332 2.49,0.996 0.641,0.657 0.962,1.51 0.962,2.56 v 0.822 c 0,1.02 -0.325,1.854 -0.973,2.503 -0.641,0.64 -1.46,0.961 -2.456,0.961 -1.004,0 -1.834,-0.321 -2.49,-0.961 -0.657,-0.649 -0.985,-1.51 -0.985,-2.584 z m 1.599,0.891 c 0,0.603 0.169,1.101 0.509,1.495 0.34,0.386 0.796,0.579 1.367,0.579 0.548,0 0.989,-0.189 1.321,-0.568 0.339,-0.378 0.509,-0.895 0.509,-1.552 v -0.845 c 0,-0.603 -0.166,-1.101 -0.498,-1.495 -0.332,-0.394 -0.784,-0.59 -1.355,-0.59 -0.572,0 -1.023,0.196 -1.355,0.59 -0.332,0.394 -0.498,0.908 -0.498,1.541 z m 6.614,8.595 c 0,-1.011 0.32,-1.841 0.961,-2.49 0.649,-0.656 1.479,-0.985 2.491,-0.985 1.011,0 1.841,0.325 2.49,0.973 0.649,0.649 0.973,1.51 0.973,2.583 v 0.823 c 0,1.012 -0.324,1.846 -0.973,2.502 -0.641,0.649 -1.463,0.973 -2.467,0.973 -1.004,0 -1.834,-0.321 -2.491,-0.961 -0.656,-0.649 -0.984,-1.51 -0.984,-2.584 z m 1.598,0.904 c 0,0.61 0.17,1.112 0.51,1.506 0.34,0.386 0.795,0.579 1.367,0.579 0.556,0 1,-0.189 1.332,-0.568 0.332,-0.386 0.498,-0.907 0.498,-1.563 v -0.858 c 0,-0.61 -0.17,-1.108 -0.51,-1.494 -0.332,-0.386 -0.78,-0.579 -1.343,-0.579 -0.549,0 -0.997,0.193 -1.344,0.579 -0.34,0.379 -0.51,0.892 -0.51,1.541 z m -5.849,1.958 -1.217,-0.765 8.236,-13.182 1.216,0.765 z"
       fill="#ef2a82"
       id="path10" />
    <path
       d="m 308.905,194.146 c 0,-0.56 0.109,-1.064 0.328,-1.512 0.222,-0.448 0.528,-0.793 0.92,-1.037 0.395,-0.243 0.844,-0.364 1.348,-0.364 0.779,0 1.409,0.269 1.888,0.809 0.483,0.539 0.725,1.256 0.725,2.152 v 0.069 c 0,0.557 -0.108,1.057 -0.323,1.501 -0.212,0.441 -0.516,0.785 -0.915,1.032 -0.395,0.246 -0.849,0.37 -1.364,0.37 -0.776,0 -1.405,-0.27 -1.888,-0.809 -0.479,-0.54 -0.719,-1.254 -0.719,-2.142 z m 0.983,0.117 c 0,0.634 0.147,1.144 0.439,1.528 0.296,0.384 0.691,0.576 1.185,0.576 0.497,0 0.892,-0.194 1.184,-0.581 0.293,-0.392 0.439,-0.938 0.439,-1.64 0,-0.627 -0.15,-1.135 -0.449,-1.523 -0.296,-0.391 -0.691,-0.587 -1.185,-0.587 -0.483,0 -0.872,0.192 -1.168,0.577 -0.297,0.384 -0.445,0.934 -0.445,1.65 z m 10.286,0 c 0,0.87 -0.199,1.572 -0.598,2.104 -0.398,0.533 -0.938,0.799 -1.618,0.799 -0.694,0 -1.241,-0.221 -1.639,-0.661 v 2.755 h -0.979 v -7.922 h 0.894 l 0.048,0.635 c 0.398,-0.494 0.952,-0.74 1.66,-0.74 0.688,0 1.231,0.259 1.629,0.777 0.402,0.518 0.603,1.239 0.603,2.163 z m -0.979,-0.111 c 0,-0.646 -0.137,-1.155 -0.412,-1.529 -0.275,-0.373 -0.652,-0.56 -1.132,-0.56 -0.592,0 -1.036,0.262 -1.332,0.788 v 2.734 c 0.292,0.521 0.74,0.782 1.343,0.782 0.469,0 0.841,-0.185 1.116,-0.555 0.278,-0.374 0.417,-0.927 0.417,-1.66 z m 3.554,-4.199 v 1.385 h 1.068 v 0.756 h -1.068 v 3.549 c 0,0.229 0.048,0.402 0.143,0.518 0.095,0.113 0.257,0.169 0.486,0.169 0.113,0 0.268,-0.021 0.466,-0.063 v 0.793 c -0.258,0.071 -0.508,0.106 -0.751,0.106 -0.437,0 -0.767,-0.132 -0.989,-0.397 -0.222,-0.264 -0.333,-0.64 -0.333,-1.126 v -3.549 h -1.042 v -0.756 h 1.042 v -1.385 z m 3.279,7.107 h -0.979 v -5.722 h 0.979 z m -1.058,-7.239 c 0,-0.159 0.048,-0.293 0.143,-0.402 0.099,-0.11 0.243,-0.164 0.433,-0.164 0.191,0 0.335,0.054 0.434,0.164 0.099,0.109 0.148,0.243 0.148,0.402 0,0.158 -0.049,0.29 -0.148,0.396 -0.099,0.106 -0.243,0.159 -0.434,0.159 -0.19,0 -0.334,-0.053 -0.433,-0.159 -0.095,-0.106 -0.143,-0.238 -0.143,-0.396 z m 2.369,4.325 c 0,-0.56 0.109,-1.064 0.328,-1.512 0.222,-0.448 0.529,-0.793 0.92,-1.037 0.395,-0.243 0.844,-0.364 1.349,-0.364 0.779,0 1.408,0.269 1.887,0.809 0.483,0.539 0.725,1.256 0.725,2.152 v 0.069 c 0,0.557 -0.108,1.057 -0.323,1.501 -0.211,0.441 -0.516,0.785 -0.915,1.032 -0.394,0.246 -0.849,0.37 -1.364,0.37 -0.775,0 -1.405,-0.27 -1.888,-0.809 -0.479,-0.54 -0.719,-1.254 -0.719,-2.142 z m 0.984,0.117 c 0,0.634 0.146,1.144 0.439,1.528 0.296,0.384 0.691,0.576 1.184,0.576 0.497,0 0.892,-0.194 1.185,-0.581 0.292,-0.392 0.439,-0.938 0.439,-1.64 0,-0.627 -0.15,-1.135 -0.45,-1.523 -0.296,-0.391 -0.691,-0.587 -1.184,-0.587 -0.483,0 -0.873,0.192 -1.169,0.577 -0.296,0.384 -0.444,0.934 -0.444,1.65 z m 6.377,-2.925 0.032,0.719 c 0.437,-0.549 1.008,-0.824 1.713,-0.824 1.209,0 1.819,0.682 1.83,2.046 v 3.781 h -0.978 v -3.786 c -0.004,-0.413 -0.099,-0.718 -0.286,-0.915 -0.183,-0.198 -0.471,-0.296 -0.862,-0.296 -0.317,0 -0.596,0.084 -0.835,0.254 -0.24,0.169 -0.427,0.391 -0.561,0.666 v 4.077 h -0.978 v -5.722 z m 12.681,5.722 h -5.045 v -0.703 l 2.665,-2.962 c 0.395,-0.447 0.667,-0.81 0.815,-1.089 0.151,-0.282 0.227,-0.573 0.227,-0.873 0,-0.401 -0.122,-0.731 -0.365,-0.988 -0.243,-0.258 -0.567,-0.386 -0.973,-0.386 -0.486,0 -0.865,0.139 -1.137,0.417 -0.268,0.275 -0.402,0.66 -0.402,1.153 h -0.978 c 0,-0.708 0.227,-1.281 0.682,-1.718 0.458,-0.438 1.07,-0.656 1.835,-0.656 0.716,0 1.282,0.188 1.698,0.566 0.416,0.373 0.624,0.872 0.624,1.496 0,0.758 -0.483,1.661 -1.449,2.708 l -2.063,2.236 h 3.866 z"
       fill="#8794ba"
       id="path12" />
    <path
       d="m 177.093,95.537 c -0.052,-1.3767 1.023,-2.5405 2.4,-2.5305 11.998,0.0866 23.673,4.0506 33.263,11.3355 10.253,7.788 17.488,18.891 20.473,31.416 2.984,12.526 1.534,25.698 -4.105,37.274 -5.639,11.575 -15.117,20.838 -26.819,26.208 -11.702,5.371 -24.905,6.518 -37.358,3.246 -12.453,-3.272 -23.386,-10.761 -30.937,-21.19 -7.551,-10.43 -11.251,-23.155 -10.472,-36.007 0.73,-12.021 5.336,-23.457 13.093,-32.611 0.891,-1.051 2.474,-1.106 3.484,-0.17 1.01,0.937 1.064,2.512 0.178,3.567 -6.975,8.304 -11.116,18.648 -11.775,29.516 -0.71,11.7 2.659,23.285 9.533,32.779 6.874,9.495 16.827,16.313 28.164,19.291 11.337,2.979 23.356,1.935 34.009,-2.955 10.653,-4.889 19.282,-13.321 24.415,-23.859 5.133,-10.538 6.454,-22.53 3.737,-33.932 -2.717,-11.403 -9.304,-21.51 -18.638,-28.601 -8.671,-6.586 -19.213,-10.1906 -30.057,-10.3168 -1.378,-0.016 -2.536,-1.0836 -2.588,-2.4602 z"
       fill="#ef2a82"
       id="path14" />
    <path
       d="m 176.107,71.9947 c -0.077,-1.9867 1.472,-3.6684 3.46,-3.6567 15.573,0.0921 30.814,4.7117 43.846,13.3339 14.034,9.2856 24.797,22.7441 30.77,38.4761 5.973,15.733 6.854,32.943 2.519,49.203 -4.335,16.26 -13.667,30.748 -26.68,41.418 -13.012,10.671 -29.047,16.985 -45.841,18.051 -16.794,1.067 -33.499,-3.168 -47.756,-12.107 -14.258,-8.939 -25.348,-22.13 -31.705,-37.711 -5.9028,-14.468 -7.4478,-30.318 -4.488,-45.608 0.378,-1.952 2.331,-3.141 4.264,-2.676 1.933,0.464 3.114,2.408 2.744,4.361 -2.612,13.822 -1.186,28.132 4.146,41.203 5.788,14.185 15.884,26.193 28.863,34.331 12.98,8.137 28.187,11.993 43.476,11.022 15.288,-0.971 29.886,-6.719 41.732,-16.433 11.846,-9.714 20.342,-22.903 24.288,-37.705 3.947,-14.803 3.145,-30.471 -2.293,-44.793 -5.438,-14.322 -15.236,-26.5742 -28.012,-35.0275 -11.774,-7.7898 -25.528,-11.9908 -39.593,-12.136 -1.988,-0.0205 -3.662,-1.5591 -3.74,-3.5458 z"
       fill="#0088f0"
       id="path16" />
    <path
       d="m 170.711,147.37 0.26,-2.56 h 2.63 v 0.603 h -2.076 l -0.155,1.4 c 0.251,-0.148 0.537,-0.222 0.856,-0.222 0.468,0 0.839,0.155 1.114,0.465 0.275,0.308 0.413,0.725 0.413,1.252 0,0.528 -0.143,0.946 -0.43,1.251 -0.285,0.303 -0.683,0.455 -1.195,0.455 -0.454,0 -0.824,-0.126 -1.111,-0.377 -0.287,-0.252 -0.45,-0.6 -0.49,-1.044 h 0.617 c 0.04,0.294 0.145,0.516 0.314,0.666 0.169,0.148 0.392,0.223 0.67,0.223 0.303,0 0.54,-0.104 0.712,-0.311 0.174,-0.207 0.261,-0.492 0.261,-0.856 0,-0.344 -0.094,-0.618 -0.282,-0.825 -0.186,-0.209 -0.434,-0.314 -0.744,-0.314 -0.285,0 -0.508,0.062 -0.67,0.187 l -0.173,0.141 z m 4.054,0 0.261,-2.56 h 2.63 v 0.603 h -2.077 l -0.155,1.4 c 0.251,-0.148 0.537,-0.222 0.857,-0.222 0.467,0 0.839,0.155 1.114,0.465 0.275,0.308 0.412,0.725 0.412,1.252 0,0.528 -0.143,0.946 -0.43,1.251 -0.284,0.303 -0.683,0.455 -1.195,0.455 -0.454,0 -0.824,-0.126 -1.111,-0.377 -0.286,-0.252 -0.45,-0.6 -0.49,-1.044 h 0.617 c 0.04,0.294 0.145,0.516 0.314,0.666 0.169,0.148 0.393,0.223 0.67,0.223 0.303,0 0.54,-0.104 0.712,-0.311 0.174,-0.207 0.261,-0.492 0.261,-0.856 0,-0.344 -0.094,-0.618 -0.282,-0.825 -0.186,-0.209 -0.434,-0.314 -0.744,-0.314 -0.284,0 -0.508,0.062 -0.67,0.187 l -0.173,0.141 z m 5.179,0.659 h -1.721 v -0.532 h 1.721 z m 3.13,-3.222 v 0.553 h -0.12 c -0.507,0.01 -0.912,0.16 -1.213,0.452 -0.3,0.291 -0.474,0.701 -0.521,1.23 0.27,-0.31 0.639,-0.465 1.107,-0.465 0.446,0 0.802,0.157 1.068,0.472 0.268,0.315 0.402,0.722 0.402,1.22 0,0.529 -0.145,0.952 -0.434,1.269 -0.287,0.317 -0.672,0.476 -1.156,0.476 -0.491,0 -0.89,-0.188 -1.195,-0.564 -0.306,-0.379 -0.459,-0.865 -0.459,-1.46 v -0.25 c 0,-0.945 0.201,-1.666 0.603,-2.165 0.404,-0.5 1.005,-0.756 1.802,-0.768 z m -0.857,2.313 c -0.223,0 -0.429,0.067 -0.617,0.2 -0.188,0.134 -0.318,0.302 -0.391,0.505 v 0.239 c 0,0.423 0.095,0.764 0.286,1.023 0.19,0.258 0.427,0.387 0.712,0.387 0.294,0 0.524,-0.108 0.691,-0.324 0.169,-0.216 0.254,-0.499 0.254,-0.849 0,-0.353 -0.086,-0.637 -0.258,-0.854 -0.169,-0.218 -0.395,-0.327 -0.677,-0.327 z m 5.105,1.099 h 0.712 v 0.533 h -0.712 v 1.191 h -0.656 v -1.191 h -2.337 v -0.384 l 2.299,-3.558 h 0.694 z m -2.253,0 h 1.597 v -2.517 l -0.077,0.141 z"
       fill="#8794ba"
       id="path18" />
    <path
       d="M 77.1223,53.0854 H 74.255 l -0.644,1.7862 h -0.9307 l 2.6135,-6.8439 h 0.7897 l 2.6182,6.8439 h -0.926 z m -2.5947,-0.7426 h 2.3268 l -1.1658,-3.2011 z m 4.7522,-0.0564 c 0,-0.7929 0.1833,-1.4227 0.55,-1.8897 0.3666,-0.47 0.8523,-0.705 1.4571,-0.705 0.6205,0 1.1047,0.2193 1.4525,0.658 l 0.0423,-0.564 h 0.7944 v 4.9637 c 0,0.6581 -0.1959,1.1767 -0.5876,1.5559 -0.3885,0.3792 -0.9119,0.5688 -1.5699,0.5688 -0.3667,0 -0.7255,-0.0784 -1.0765,-0.2351 -0.3509,-0.1566 -0.6189,-0.3713 -0.8037,-0.6439 l 0.4512,-0.5218 c 0.3729,0.4607 0.8289,0.691 1.3679,0.691 0.423,0 0.752,-0.1191 0.9871,-0.3573 0.2381,-0.2381 0.3572,-0.5734 0.3572,-1.0059 V 54.364 c -0.3478,0.4011 -0.8226,0.6017 -1.4243,0.6017 -0.5954,0 -1.0779,-0.2398 -1.4477,-0.7192 -0.3667,-0.4795 -0.55,-1.1329 -0.55,-1.9601 z m 0.8743,0.0987 c 0,0.5734 0.1175,1.0247 0.3526,1.3537 0.235,0.3259 0.564,0.4889 0.9871,0.4889 0.5484,0 0.951,-0.2492 1.208,-0.7474 v -2.3221 c -0.2664,-0.4857 -0.6659,-0.7285 -1.1986,-0.7285 -0.4231,0 -0.7537,0.1645 -0.9918,0.4935 -0.2382,0.329 -0.3573,0.8163 -0.3573,1.4619 z m 6.8487,2.5806 c -0.6894,0 -1.2504,-0.2257 -1.6828,-0.6769 -0.4325,-0.4544 -0.6487,-1.0608 -0.6487,-1.8191 v -0.1598 c 0,-0.5046 0.0956,-0.9542 0.2868,-1.3491 0.1942,-0.398 0.4637,-0.7082 0.8084,-0.9307 0.3479,-0.2256 0.7239,-0.3384 1.1282,-0.3384 0.6612,0 1.1751,0.2178 1.5417,0.6533 0.3667,0.4356 0.55,1.0592 0.55,1.8708 v 0.362 h -3.4455 c 0.0126,0.5014 0.1583,0.9072 0.4372,1.2174 0.282,0.3071 0.6392,0.4607 1.0717,0.4607 0.3071,0 0.5672,-0.0627 0.7803,-0.188 0.2131,-0.1254 0.3995,-0.2915 0.5593,-0.4983 l 0.5312,0.4136 c -0.4262,0.655 -1.0655,0.9825 -1.9178,0.9825 z m -0.1081,-4.5596 c -0.351,0 -0.6456,0.1285 -0.8837,0.3855 -0.2382,0.2538 -0.3855,0.6111 -0.4419,1.0717 h 2.5477 v -0.0658 c -0.0251,-0.4418 -0.1441,-0.7834 -0.3572,-1.0247 -0.2131,-0.2444 -0.5014,-0.3667 -0.8649,-0.3667 z m 6.0636,3.1165 c 0,-0.235 -0.0893,-0.4168 -0.2679,-0.5453 -0.1755,-0.1316 -0.4841,-0.2444 -0.926,-0.3384 -0.4387,-0.094 -0.7881,-0.2068 -1.0482,-0.3384 -0.257,-0.1317 -0.4481,-0.2883 -0.5735,-0.4701 -0.1222,-0.1817 -0.1833,-0.398 -0.1833,-0.6487 0,-0.4167 0.1755,-0.7693 0.5265,-1.0576 0.3541,-0.2883 0.8053,-0.4324 1.3537,-0.4324 0.5766,0 1.0435,0.1488 1.4008,0.4465 0.3603,0.2977 0.5405,0.6785 0.5405,1.1422 h -0.8743 c 0,-0.2381 -0.1018,-0.4434 -0.3055,-0.6157 -0.2006,-0.1724 -0.4544,-0.2586 -0.7615,-0.2586 -0.3165,0 -0.564,0.069 -0.7427,0.2069 -0.1786,0.1379 -0.2679,0.318 -0.2679,0.5405 0,0.21 0.083,0.3682 0.2491,0.4748 0.1661,0.1065 0.4654,0.2084 0.8978,0.3055 0.4356,0.0972 0.7882,0.2131 1.0576,0.3479 0.2695,0.1347 0.4685,0.2977 0.597,0.4888 0.1316,0.188 0.1974,0.4184 0.1974,0.691 0,0.4544 -0.1817,0.8194 -0.5452,1.0952 -0.3635,0.2726 -0.8351,0.409 -1.4149,0.409 -0.4074,0 -0.7677,-0.0721 -1.0811,-0.2163 -0.3134,-0.1441 -0.5594,-0.3447 -0.738,-0.6016 -0.1755,-0.2601 -0.2632,-0.5406 -0.2632,-0.8414 h 0.8696 c 0.0157,0.2914 0.1316,0.5233 0.3478,0.6956 0.2194,0.1693 0.5077,0.2539 0.8649,0.2539 0.3291,0 0.5923,-0.0658 0.7897,-0.1974 0.2006,-0.1348 0.3008,-0.3134 0.3008,-0.5359 z"
       fill="#8794ba"
       id="path20" />
  </g>
  <defs
     id="defs39">
    <filter
       id="filter0_d_535_1065"
       x="0.61834103"
       y="0.84319502"
       width="435.763"
       height="321.44699"
       filterUnits="userSpaceOnUse"
       color-interpolation-filters="sRGB">
      <feFlood
         flood-opacity="0"
         result="BackgroundImageFix"
         id="feFlood22" />
      <feColorMatrix
         in="SourceAlpha"
         type="matrix"
         values="0 0 0 0 0 0 0 0 0 0 0 0 0 0 0 0 0 0 127 0"
         result="hardAlpha"
         id="feColorMatrix24" />
      <feMorphology
         radius="16.0207"
         operator="erode"
         in="SourceAlpha"
         result="effect1_dropShadow_535_1065"
         id="feMorphology26" />
      <feOffset
         dy="19.2249"
         id="feOffset28" />
      <feGaussianBlur
         stdDeviation="26.7012"
         id="feGaussianBlur30" />
      <feColorMatrix
         type="matrix"
         values="0 0 0 0 0.0996452 0 0 0 0 0.164326 0 0 0 0 0.350284 0 0 0 0.2 0"
         id="feColorMatrix32" />
      <feBlend
         mode="normal"
         in2="BackgroundImageFix"
         result="effect1_dropShadow_535_1065"
         id="feBlend34" />
      <feBlend
         mode="normal"
         in="SourceGraphic"
         in2="effect1_dropShadow_535_1065"
         result="shape"
         id="feBlend36" />
    </filter>
    <filter
       style="color-interpolation-filters:sRGB"
       inkscape:label="Drop Shadow"
       id="filter539"
       x="-0.12346737"
       y="-0.18137334"
       width="1.2164079"
       height="1.317384">
      <feFlood
         flood-opacity="0.498039"
         flood-color="rgb(0,0,0)"
         result="flood"
         id="feFlood529" />
      <feComposite
         in="flood"
         in2="SourceGraphic"
         operator="in"
         result="composite1"
         id="feComposite531" />
      <feGaussianBlur
         in="composite1"
         stdDeviation="13.9798"
         result="blur"
         id="feGaussianBlur533" />
      <feOffset
         dx="-11.0202"
         dy="-11.1902"
         result="offset"
         id="feOffset535" />
      <feComposite
         in="SourceGraphic"
         in2="offset"
         operator="over"
         result="composite2"
         id="feComposite537" />
    </filter>
  </defs>
</svg>
