<?xml version="1.0" encoding="UTF-8" standalone="no"?>
<svg
   width="600"
   height="410"
   viewBox="0 0 600 410"
   fill="none"
   version="1.1"
   id="svg71"
   sodipodi:docname="chart-4.svg"
   inkscape:version="1.1.1 (26b7af14f2, 2022-01-19)"
   xmlns:inkscape="http://www.inkscape.org/namespaces/inkscape"
   xmlns:sodipodi="http://sodipodi.sourceforge.net/DTD/sodipodi-0.dtd"
   xmlns="http://www.w3.org/2000/svg"
   xmlns:svg="http://www.w3.org/2000/svg">
  <sodipodi:namedview
     id="namedview73"
     pagecolor="#ffffff"
     bordercolor="#666666"
     borderopacity="1.0"
     inkscape:pageshadow="2"
     inkscape:pageopacity="0.0"
     inkscape:pagecheckerboard="0"
     showgrid="false"
     inkscape:zoom="1.7462687"
     inkscape:cx="299.78205"
     inkscape:cy="222.76068"
     inkscape:window-width="1908"
     inkscape:window-height="1017"
     inkscape:window-x="8"
     inkscape:window-y="1097"
     inkscape:window-maximized="0"
     inkscape:current-layer="g4" />
  <g
     filter="url(#filter0_d_535_1459)"
     id="g4"
     transform="translate(-35,-17)">
    <rect
       x="35"
       y="17"
       width="600"
       height="410"
       rx="30"
       fill="#ffffff"
       id="rect2" />
  </g>
  <rect
     x="99"
     y="72"
     width="1"
     height="271"
     fill="#eeeef7"
     id="rect6" />
  <rect
     x="162"
     y="72"
     width="1"
     height="271"
     fill="#eeeef7"
     id="rect8" />
  <rect
     x="225"
     y="72"
     width="1"
     height="271"
     fill="#eeeef7"
     id="rect10" />
  <rect
     x="288"
     y="72"
     width="1"
     height="271"
     fill="#eeeef7"
     id="rect12" />
  <rect
     x="351"
     y="72"
     width="1"
     height="271"
     fill="#eeeef7"
     id="rect14" />
  <rect
     x="414"
     y="72"
     width="1"
     height="271"
     fill="#eeeef7"
     id="rect16" />
  <rect
     x="477"
     y="72"
     width="1"
     height="271"
     fill="#eeeef7"
     id="rect18" />
  <rect
     x="540"
     y="72"
     width="1"
     height="271"
     fill="#eeeef7"
     id="rect20" />
  <path
     d="m 58.9375,92.723 0.4336,-4.254 h 4.3711 v 1.002 H 60.291 l -0.2578,2.326 c 0.418,-0.246 0.8926,-0.369 1.4238,-0.369 0.7774,0 1.3946,0.258 1.8516,0.773 0.457,0.512 0.6855,1.205 0.6855,2.08 0,0.879 -0.2382,1.573 -0.7148,2.08 -0.4727,0.504 -1.1348,0.756 -1.9863,0.756 -0.7539,0 -1.3692,-0.209 -1.8457,-0.627 -0.4766,-0.418 -0.7481,-0.996 -0.8145,-1.734 h 1.0254 c 0.0664,0.488 0.2402,0.857 0.5215,1.107 0.2812,0.246 0.6523,0.369 1.1133,0.369 0.5039,0 0.8984,-0.171 1.1836,-0.515 0.289,-0.344 0.4336,-0.819 0.4336,-1.424 0,-0.57 -0.1563,-1.027 -0.4688,-1.371 -0.3086,-0.348 -0.7207,-0.522 -1.2363,-0.522 -0.4727,0 -0.8438,0.104 -1.1133,0.311 l -0.2871,0.234 z m 10.8165,1.412 h 1.184 V 95.02 H 69.754 V 97 h -1.09 V 95.02 H 64.7793 V 94.381 L 68.6,88.469 h 1.154 z m -3.744,0 h 2.654 v -4.184 l -0.129,0.235 z m 8.273,-0.317 h -2.859 v -0.884 h 2.859 z m 5.203,-5.355 v 0.92 h -0.199 c -0.844,0.015 -1.516,0.265 -2.016,0.75 -0.5,0.484 -0.789,1.166 -0.867,2.045 0.45,-0.516 1.063,-0.774 1.84,-0.774 0.742,0 1.334,0.262 1.776,0.785 0.445,0.524 0.668,1.2 0.668,2.028 0,0.879 -0.241,1.582 -0.721,2.109 -0.477,0.528 -1.117,0.791 -1.922,0.791 -0.816,0 -1.479,-0.312 -1.986,-0.937 -0.508,-0.629 -0.762,-1.438 -0.762,-2.426 v -0.416 c 0,-1.57 0.334,-2.77 1.002,-3.598 0.672,-0.832 1.67,-1.258 2.994,-1.277 z m -1.424,3.844 c -0.371,0 -0.712,0.111 -1.025,0.334 -0.312,0.222 -0.529,0.502 -0.65,0.838 v 0.398 c 0,0.703 0.158,1.269 0.474,1.699 0.317,0.43 0.711,0.645 1.184,0.645 0.488,0 0.871,-0.18 1.148,-0.539 0.282,-0.36 0.422,-0.83 0.422,-1.412 0,-0.586 -0.142,-1.059 -0.427,-1.418 -0.282,-0.364 -0.657,-0.545 -1.126,-0.545 z m 4.407,0.416 0.433,-4.254 h 4.371 v 1.002 h -3.451 l -0.258,2.326 c 0.418,-0.246 0.893,-0.369 1.424,-0.369 0.778,0 1.395,0.258 1.852,0.773 0.457,0.512 0.685,1.205 0.685,2.08 0,0.879 -0.238,1.573 -0.714,2.08 -0.473,0.504 -1.135,0.756 -1.987,0.756 -0.754,0 -1.369,-0.209 -1.845,-0.627 -0.477,-0.418 -0.749,-0.996 -0.815,-1.734 h 1.025 c 0.067,0.488 0.241,0.857 0.522,1.107 0.281,0.246 0.652,0.369 1.113,0.369 0.504,0 0.899,-0.171 1.184,-0.515 0.289,-0.344 0.433,-0.819 0.433,-1.424 0,-0.57 -0.156,-1.027 -0.468,-1.371 -0.309,-0.348 -0.721,-0.522 -1.237,-0.522 -0.472,0 -0.843,0.104 -1.113,0.311 l -0.287,0.234 z"
     fill="#8794ba"
     id="path22" />
  <path
     d="m 63.0156,150.135 h 1.1836 v 0.885 H 63.0156 V 153 h -1.0898 v -1.98 H 58.041 v -0.639 l 3.8203,-5.912 h 1.1543 z m -3.7441,0 h 2.6543 v -4.184 l -0.1289,0.235 z m 6.4045,-1.412 0.433,-4.254 h 4.371 v 1.002 h -3.451 l -0.258,2.326 c 0.418,-0.246 0.893,-0.369 1.424,-0.369 0.778,0 1.395,0.258 1.852,0.773 0.457,0.512 0.685,1.205 0.685,2.08 0,0.879 -0.238,1.573 -0.714,2.08 -0.473,0.504 -1.135,0.756 -1.987,0.756 -0.754,0 -1.369,-0.209 -1.845,-0.627 -0.477,-0.418 -0.748,-0.996 -0.815,-1.734 h 1.025 c 0.067,0.488 0.241,0.857 0.522,1.107 0.281,0.246 0.652,0.369 1.113,0.369 0.504,0 0.899,-0.171 1.184,-0.515 0.289,-0.344 0.433,-0.819 0.433,-1.424 0,-0.57 -0.156,-1.027 -0.468,-1.371 -0.309,-0.348 -0.721,-0.522 -1.237,-0.522 -0.472,0 -0.843,0.104 -1.113,0.311 l -0.287,0.234 z m 8.607,1.095 h -2.859 v -0.884 h 2.859 z m 1.447,-1.095 0.434,-4.254 h 4.371 v 1.002 h -3.451 l -0.258,2.326 c 0.418,-0.246 0.893,-0.369 1.424,-0.369 0.777,0 1.395,0.258 1.852,0.773 0.457,0.512 0.685,1.205 0.685,2.08 0,0.879 -0.238,1.573 -0.715,2.08 -0.472,0.504 -1.134,0.756 -1.986,0.756 -0.754,0 -1.369,-0.209 -1.846,-0.627 -0.476,-0.418 -0.748,-0.996 -0.814,-1.734 h 1.025 c 0.067,0.488 0.24,0.857 0.522,1.107 0.281,0.246 0.652,0.369 1.113,0.369 0.504,0 0.898,-0.171 1.184,-0.515 0.289,-0.344 0.433,-0.819 0.433,-1.424 0,-0.57 -0.156,-1.027 -0.469,-1.371 -0.308,-0.348 -0.72,-0.522 -1.236,-0.522 -0.473,0 -0.844,0.104 -1.113,0.311 l -0.287,0.234 z m 10.817,1.412 h 1.183 v 0.885 H 86.547 V 153 h -1.09 v -1.98 h -3.885 v -0.639 l 3.821,-5.912 h 1.154 z m -3.744,0 h 2.654 v -4.184 l -0.129,0.235 z"
     fill="#8794ba"
     id="path24" />
  <path
     d="m 60.0156,204.207 h 0.8145 c 0.5117,-0.008 0.914,-0.143 1.207,-0.404 0.293,-0.262 0.4395,-0.615 0.4395,-1.061 0,-1 -0.4981,-1.5 -1.4942,-1.5 -0.4687,0 -0.8437,0.135 -1.125,0.404 -0.2773,0.266 -0.416,0.62 -0.416,1.061 h -1.084 c 0,-0.676 0.2461,-1.236 0.7383,-1.682 0.4961,-0.449 1.125,-0.673 1.8867,-0.673 0.8047,0 1.4356,0.212 1.8926,0.638 0.457,0.426 0.6855,1.018 0.6855,1.776 0,0.371 -0.121,0.73 -0.3632,1.078 -0.2383,0.347 -0.5645,0.607 -0.9785,0.779 0.4687,0.148 0.83,0.395 1.0839,0.738 0.2578,0.344 0.3868,0.764 0.3868,1.26 0,0.766 -0.25,1.373 -0.75,1.822 -0.5,0.45 -1.1504,0.674 -1.9512,0.674 -0.8008,0 -1.4531,-0.217 -1.9571,-0.65 -0.5,-0.434 -0.75,-1.006 -0.75,-1.717 h 1.0899 c 0,0.449 0.1465,0.809 0.4394,1.078 0.293,0.27 0.6856,0.404 1.1778,0.404 0.5234,0 0.9238,-0.136 1.2012,-0.41 0.2773,-0.273 0.416,-0.666 0.416,-1.177 0,-0.497 -0.1524,-0.877 -0.4571,-1.143 -0.3046,-0.266 -0.7441,-0.402 -1.3183,-0.41 h -0.8145 z m 5.6604,0.516 0.433,-4.254 h 4.371 v 1.002 h -3.451 l -0.258,2.326 c 0.418,-0.246 0.893,-0.369 1.424,-0.369 0.778,0 1.395,0.258 1.852,0.773 0.457,0.512 0.685,1.205 0.685,2.08 0,0.879 -0.238,1.573 -0.714,2.08 -0.473,0.504 -1.135,0.756 -1.987,0.756 -0.754,0 -1.369,-0.209 -1.845,-0.627 -0.477,-0.418 -0.748,-0.996 -0.815,-1.734 h 1.025 c 0.067,0.488 0.241,0.857 0.522,1.107 0.281,0.246 0.652,0.369 1.113,0.369 0.504,0 0.899,-0.171 1.184,-0.515 0.289,-0.344 0.433,-0.819 0.433,-1.424 0,-0.57 -0.156,-1.027 -0.468,-1.371 -0.309,-0.348 -0.721,-0.522 -1.237,-0.522 -0.472,0 -0.843,0.104 -1.113,0.311 l -0.287,0.234 z m 8.607,1.095 h -2.859 v -0.884 h 2.859 z m 5.526,0.317 h 1.183 v 0.885 H 79.809 V 209 h -1.09 v -1.98 h -3.885 v -0.639 l 3.82,-5.912 h 1.155 z m -3.745,0 h 2.655 v -4.184 l -0.129,0.235 z m 10.483,0 h 1.183 v 0.885 H 86.547 V 209 h -1.09 v -1.98 h -3.885 v -0.639 l 3.821,-5.912 h 1.154 z m -3.744,0 h 2.654 v -4.184 l -0.129,0.235 z"
     fill="#8794ba"
     id="path26" />
  <path
     d="m 64.0293,265 h -5.5898 v -0.779 l 2.9531,-3.282 c 0.4375,-0.496 0.7383,-0.898 0.9023,-1.207 0.168,-0.312 0.252,-0.634 0.252,-0.966 0,-0.446 -0.1348,-0.811 -0.4043,-1.096 -0.2696,-0.285 -0.6289,-0.428 -1.0781,-0.428 -0.5391,0 -0.959,0.154 -1.2598,0.463 -0.2969,0.305 -0.4453,0.731 -0.4453,1.277 h -1.084 c 0,-0.785 0.2519,-1.42 0.7558,-1.904 0.5079,-0.484 1.1856,-0.726 2.0333,-0.726 0.7929,0 1.4199,0.209 1.8808,0.627 0.4609,0.414 0.6914,0.966 0.6914,1.658 0,0.84 -0.5351,1.84 -1.6055,3 l -2.2851,2.478 h 4.2832 z m 1.6467,-4.277 0.433,-4.254 h 4.371 v 1.002 h -3.451 l -0.258,2.326 c 0.418,-0.246 0.893,-0.369 1.424,-0.369 0.778,0 1.395,0.258 1.852,0.773 0.457,0.512 0.685,1.205 0.685,2.08 0,0.879 -0.238,1.573 -0.714,2.08 -0.473,0.504 -1.135,0.756 -1.987,0.756 -0.754,0 -1.369,-0.209 -1.845,-0.627 -0.477,-0.418 -0.748,-0.996 -0.815,-1.734 h 1.025 c 0.067,0.488 0.241,0.857 0.522,1.107 0.281,0.246 0.652,0.369 1.113,0.369 0.504,0 0.899,-0.171 1.184,-0.515 0.289,-0.344 0.433,-0.819 0.433,-1.424 0,-0.57 -0.156,-1.027 -0.468,-1.371 -0.309,-0.348 -0.721,-0.522 -1.237,-0.522 -0.472,0 -0.843,0.104 -1.113,0.311 l -0.287,0.234 z m 8.607,1.095 h -2.859 v -0.884 h 2.859 z m 2.526,-1.611 h 0.814 c 0.512,-0.008 0.914,-0.143 1.207,-0.404 0.293,-0.262 0.44,-0.615 0.44,-1.061 0,-1 -0.499,-1.5 -1.495,-1.5 -0.468,0 -0.843,0.135 -1.125,0.404 -0.277,0.266 -0.416,0.62 -0.416,1.061 H 75.15 c 0,-0.676 0.246,-1.236 0.739,-1.682 0.496,-0.449 1.125,-0.673 1.886,-0.673 0.805,0 1.436,0.212 1.893,0.638 0.457,0.426 0.686,1.018 0.686,1.776 0,0.371 -0.122,0.73 -0.364,1.078 -0.238,0.347 -0.564,0.607 -0.978,0.779 0.468,0.148 0.83,0.395 1.084,0.738 0.258,0.344 0.386,0.764 0.386,1.26 0,0.766 -0.25,1.373 -0.75,1.822 -0.5,0.45 -1.15,0.674 -1.951,0.674 -0.801,0 -1.453,-0.217 -1.957,-0.65 -0.5,-0.434 -0.75,-1.006 -0.75,-1.717 h 1.09 c 0,0.449 0.147,0.809 0.44,1.078 0.292,0.27 0.685,0.404 1.177,0.404 0.524,0 0.924,-0.136 1.201,-0.41 0.278,-0.273 0.416,-0.666 0.416,-1.177 0,-0.497 -0.152,-0.877 -0.457,-1.143 -0.304,-0.266 -0.744,-0.402 -1.318,-0.41 h -0.814 z m 9.738,1.928 h 1.183 v 0.885 H 86.547 V 265 h -1.09 v -1.98 h -3.885 v -0.639 l 3.821,-5.912 h 1.154 z m -3.744,0 h 2.654 v -4.184 l -0.129,0.235 z"
     fill="#8794ba"
     id="path28" />
  <path
     d="m 62.002,321 h -1.0899 v -7.225 l -2.1855,0.803 v -0.984 l 3.1054,-1.166 h 0.17 z m 8.35,-6.305 c 0,0.426 -0.114,0.805 -0.34,1.137 -0.223,0.332 -0.526,0.592 -0.908,0.779 0.445,0.192 0.796,0.471 1.054,0.838 0.262,0.367 0.393,0.783 0.393,1.248 0,0.739 -0.25,1.326 -0.75,1.764 -0.496,0.437 -1.151,0.656 -1.963,0.656 -0.82,0 -1.479,-0.219 -1.975,-0.656 -0.492,-0.441 -0.738,-1.029 -0.738,-1.764 0,-0.461 0.125,-0.877 0.375,-1.248 0.254,-0.371 0.604,-0.652 1.049,-0.844 -0.379,-0.187 -0.678,-0.447 -0.897,-0.779 -0.218,-0.332 -0.328,-0.709 -0.328,-1.131 0,-0.718 0.231,-1.289 0.692,-1.711 0.461,-0.422 1.068,-0.632 1.822,-0.632 0.75,0 1.355,0.21 1.816,0.632 0.465,0.422 0.698,0.993 0.698,1.711 z m -0.885,3.979 c 0,-0.477 -0.153,-0.865 -0.457,-1.166 -0.301,-0.301 -0.696,-0.451 -1.184,-0.451 -0.488,0 -0.881,0.148 -1.178,0.445 -0.293,0.297 -0.439,0.687 -0.439,1.172 0,0.484 0.143,0.865 0.428,1.142 0.289,0.278 0.689,0.416 1.201,0.416 0.508,0 0.906,-0.138 1.195,-0.416 0.289,-0.281 0.434,-0.662 0.434,-1.142 z m -1.629,-5.432 c -0.426,0 -0.772,0.133 -1.037,0.399 -0.262,0.261 -0.393,0.619 -0.393,1.072 0,0.433 0.129,0.785 0.387,1.055 0.262,0.265 0.609,0.398 1.043,0.398 0.433,0 0.779,-0.133 1.037,-0.398 0.262,-0.27 0.393,-0.622 0.393,-1.055 0,-0.434 -0.135,-0.787 -0.405,-1.061 -0.269,-0.273 -0.611,-0.41 -1.025,-0.41 z m 6.445,4.576 h -2.859 v -0.884 h 2.859 z M 80.822,321 h -5.59 v -0.779 l 2.954,-3.282 c 0.437,-0.496 0.738,-0.898 0.902,-1.207 0.168,-0.312 0.252,-0.634 0.252,-0.966 0,-0.446 -0.135,-0.811 -0.404,-1.096 -0.27,-0.285 -0.629,-0.428 -1.079,-0.428 -0.539,0 -0.959,0.154 -1.259,0.463 -0.297,0.305 -0.446,0.731 -0.446,1.277 h -1.084 c 0,-0.785 0.252,-1.42 0.756,-1.904 0.508,-0.484 1.186,-0.726 2.033,-0.726 0.793,0 1.42,0.209 1.881,0.627 0.461,0.414 0.692,0.966 0.692,1.658 0,0.84 -0.535,1.84 -1.606,3 l -2.285,2.478 h 4.283 z m 5.725,-2.865 h 1.183 v 0.885 H 86.547 V 321 h -1.09 v -1.98 h -3.885 v -0.639 l 3.821,-5.912 h 1.154 z m -3.744,0 h 2.654 v -4.184 l -0.129,0.235 z"
     fill="#8794ba"
     id="path30" />
  <path
     d="m 99,79 h 256.5 c 3.038,0 5.5,2.4624 5.5,5.5 0,3.038 -2.462,5.5 -5.5,5.5 H 99 Z"
     fill="#ef2a82"
     id="path32" />
  <path
     d="m 99,136 h 169.5 c 3.038,0 5.5,2.462 5.5,5.5 0,3.038 -2.462,5.5 -5.5,5.5 H 99 Z"
     fill="#ef2a82"
     id="path34" />
  <path
     d="m 99,193 h 10.5 c 3.038,0 5.5,2.462 5.5,5.5 0,3.038 -2.462,5.5 -5.5,5.5 H 99 Z"
     fill="#ef2a82"
     id="path36" />
  <path
     d="m 99,250 h 42.5 c 3.038,0 5.5,2.462 5.5,5.5 0,3.038 -2.462,5.5 -5.5,5.5 H 99 Z"
     fill="#ef2a82"
     id="path38" />
  <path
     d="m 99,307 h 202.5 c 3.038,0 5.5,2.462 5.5,5.5 0,3.038 -2.462,5.5 -5.5,5.5 H 99 Z"
     fill="#ef2a82"
     id="path40" />
  <path
     d="m 99,93 h 142.5 c 3.038,0 5.5,2.462 5.5,5.5 0,3.038 -2.462,5.5 -5.5,5.5 H 99 Z"
     fill="#0088f0"
     id="path42" />
  <path
     d="m 99,150 h 202.5 c 3.038,0 5.5,2.462 5.5,5.5 0,3.038 -2.462,5.5 -5.5,5.5 H 99 Z"
     fill="#0088f0"
     id="path44" />
  <path
     d="m 99,207 h 42.5 c 3.038,0 5.5,2.462 5.5,5.5 0,3.038 -2.462,5.5 -5.5,5.5 H 99 Z"
     fill="#0088f0"
     id="path46" />
  <path
     d="m 99,264 h 333.5 c 3.038,0 5.5,2.462 5.5,5.5 0,3.038 -2.462,5.5 -5.5,5.5 H 99 Z"
     fill="#0088f0"
     id="path48" />
  <path
     d="m 99,321 h 390.5 c 3.038,0 5.5,2.462 5.5,5.5 0,3.038 -2.462,5.5 -5.5,5.5 H 99 Z"
     fill="#0088f0"
     id="path50" />
  <defs
     id="defs69">
    <filter
       id="filter0_d_535_1459"
       x="0"
       y="0"
       width="670"
       height="480"
       filterUnits="userSpaceOnUse"
       color-interpolation-filters="sRGB">
      <feFlood
         flood-opacity="0"
         result="BackgroundImageFix"
         id="feFlood52" />
      <feColorMatrix
         in="SourceAlpha"
         type="matrix"
         values="0 0 0 0 0 0 0 0 0 0 0 0 0 0 0 0 0 0 127 0"
         result="hardAlpha"
         id="feColorMatrix54" />
      <feMorphology
         radius="15"
         operator="erode"
         in="SourceAlpha"
         result="effect1_dropShadow_535_1459"
         id="feMorphology56" />
      <feOffset
         dy="18"
         id="feOffset58" />
      <feGaussianBlur
         stdDeviation="25"
         id="feGaussianBlur60" />
      <feColorMatrix
         type="matrix"
         values="0 0 0 0 0.0996452 0 0 0 0 0.164326 0 0 0 0 0.350284 0 0 0 0.2 0"
         id="feColorMatrix62" />
      <feBlend
         mode="normal"
         in2="BackgroundImageFix"
         result="effect1_dropShadow_535_1459"
         id="feBlend64" />
      <feBlend
         mode="normal"
         in="SourceGraphic"
         in2="effect1_dropShadow_535_1459"
         result="shape"
         id="feBlend66" />
    </filter>
  </defs>
</svg>
