<?xml version="1.0" encoding="UTF-8" standalone="no"?>
<svg
   width="600"
   height="410"
   viewBox="0 0 600 410"
   fill="none"
   version="1.1"
   id="svg179"
   sodipodi:docname="chart-5.svg"
   inkscape:version="1.1.1 (26b7af14f2, 2022-01-19)"
   xmlns:inkscape="http://www.inkscape.org/namespaces/inkscape"
   xmlns:sodipodi="http://sodipodi.sourceforge.net/DTD/sodipodi-0.dtd"
   xmlns="http://www.w3.org/2000/svg"
   xmlns:svg="http://www.w3.org/2000/svg">
  <sodipodi:namedview
     id="namedview181"
     pagecolor="#ffffff"
     bordercolor="#666666"
     borderopacity="1.0"
     inkscape:pageshadow="2"
     inkscape:pageopacity="0.0"
     inkscape:pagecheckerboard="0"
     showgrid="false"
     inkscape:zoom="1.7462687"
     inkscape:cx="299.78205"
     inkscape:cy="222.76068"
     inkscape:window-width="1908"
     inkscape:window-height="1017"
     inkscape:window-x="1924"
     inkscape:window-y="1097"
     inkscape:window-maximized="0"
     inkscape:current-layer="g4" />
  <g
     filter="url(#filter0_d_535_1643)"
     id="g4"
     transform="translate(-35,-17)">
    <rect
       x="35"
       y="17"
       width="600"
       height="410"
       rx="30"
       fill="#ffffff"
       id="rect2" />
  </g>
  <rect
     x="70"
     y="102"
     width="66"
     height="52"
     fill="#ffffff"
     id="rect6" />
  <rect
     x="136"
     y="102"
     width="66"
     height="52"
     fill="#ffffff"
     id="rect8" />
  <path
     d="m 169.117,132 h -1.09 v -7.225 l -2.186,0.803 v -0.984 l 3.106,-1.166 h 0.17 z"
     fill="#172755"
     id="path10" />
  <rect
     x="202"
     y="102"
     width="66"
     height="52"
     fill="#ffffff"
     id="rect12" />
  <path
     d="m 237.144,132 h -5.59 v -0.779 l 2.953,-3.282 c 0.438,-0.496 0.739,-0.898 0.903,-1.207 0.168,-0.312 0.252,-0.634 0.252,-0.966 0,-0.446 -0.135,-0.811 -0.405,-1.096 -0.269,-0.285 -0.629,-0.428 -1.078,-0.428 -0.539,0 -0.959,0.154 -1.26,0.463 -0.297,0.305 -0.445,0.731 -0.445,1.277 h -1.084 c 0,-0.785 0.252,-1.42 0.756,-1.904 0.508,-0.484 1.185,-0.726 2.033,-0.726 0.793,0 1.42,0.209 1.881,0.626 0.461,0.415 0.691,0.967 0.691,1.659 0,0.84 -0.535,1.84 -1.605,3 l -2.285,2.478 h 4.283 z"
     fill="#172755"
     id="path14" />
  <rect
     x="268"
     y="102"
     width="66"
     height="52"
     fill="#ffffff"
     id="rect16" />
  <path
     d="m 299.13,127.207 h 0.815 c 0.511,-0.008 0.914,-0.143 1.207,-0.404 0.293,-0.262 0.439,-0.616 0.439,-1.061 0,-1 -0.498,-1.5 -1.494,-1.5 -0.469,0 -0.844,0.135 -1.125,0.404 -0.277,0.266 -0.416,0.62 -0.416,1.061 h -1.084 c 0,-0.676 0.246,-1.236 0.738,-1.682 0.496,-0.449 1.125,-0.673 1.887,-0.673 0.805,0 1.436,0.212 1.893,0.638 0.457,0.426 0.685,1.018 0.685,1.776 0,0.371 -0.121,0.73 -0.363,1.078 -0.238,0.347 -0.565,0.607 -0.979,0.779 0.469,0.148 0.831,0.395 1.084,0.738 0.258,0.344 0.387,0.764 0.387,1.26 0,0.766 -0.25,1.373 -0.75,1.822 -0.5,0.45 -1.15,0.674 -1.951,0.674 -0.801,0 -1.453,-0.217 -1.957,-0.65 -0.5,-0.434 -0.75,-1.006 -0.75,-1.717 h 1.09 c 0,0.449 0.146,0.809 0.439,1.078 0.293,0.27 0.686,0.404 1.178,0.404 0.523,0 0.924,-0.136 1.201,-0.41 0.277,-0.273 0.416,-0.666 0.416,-1.177 0,-0.497 -0.152,-0.877 -0.457,-1.143 -0.305,-0.266 -0.744,-0.402 -1.318,-0.41 h -0.815 z"
     fill="#172755"
     id="path18" />
  <rect
     x="334"
     y="102"
     width="66"
     height="52"
     fill="#ffffff"
     id="rect20" />
  <path
     d="m 368.13,129.135 h 1.184 v 0.885 H 368.13 V 132 h -1.09 v -1.98 h -3.884 v -0.639 l 3.82,-5.912 h 1.154 z m -3.744,0 h 2.654 v -4.184 l -0.128,0.235 z"
     fill="#172755"
     id="path22" />
  <rect
     x="400"
     y="102"
     width="66"
     height="52"
     fill="#ffffff"
     id="rect24" />
  <path
     d="m 430.052,127.723 0.434,-4.254 h 4.371 v 1.002 h -3.451 l -0.258,2.326 c 0.418,-0.246 0.892,-0.369 1.424,-0.369 0.777,0 1.394,0.258 1.851,0.773 0.457,0.512 0.686,1.205 0.686,2.08 0,0.879 -0.238,1.572 -0.715,2.08 -0.473,0.504 -1.135,0.756 -1.986,0.756 -0.754,0 -1.369,-0.209 -1.846,-0.627 -0.477,-0.418 -0.748,-0.996 -0.815,-1.734 h 1.026 c 0.066,0.488 0.24,0.857 0.521,1.107 0.282,0.246 0.653,0.369 1.114,0.369 0.504,0 0.898,-0.171 1.183,-0.515 0.289,-0.344 0.434,-0.819 0.434,-1.424 0,-0.57 -0.156,-1.027 -0.469,-1.371 -0.309,-0.348 -0.721,-0.522 -1.236,-0.522 -0.473,0 -0.844,0.104 -1.114,0.311 l -0.287,0.234 z"
     fill="#172755"
     id="path26" />
  <rect
     x="466"
     y="102"
     width="66"
     height="52"
     fill="#ffffff"
     id="rect28" />
  <path
     d="m 499.808,123.463 v 0.92 h -0.199 c -0.844,0.015 -1.516,0.265 -2.016,0.75 -0.5,0.484 -0.789,1.166 -0.867,2.045 0.449,-0.516 1.063,-0.774 1.84,-0.774 0.742,0 1.334,0.262 1.775,0.785 0.446,0.524 0.668,1.2 0.668,2.028 0,0.879 -0.24,1.582 -0.72,2.109 -0.477,0.527 -1.118,0.791 -1.922,0.791 -0.817,0 -1.479,-0.312 -1.987,-0.937 -0.508,-0.629 -0.761,-1.438 -0.761,-2.426 v -0.416 c 0,-1.57 0.334,-2.77 1.002,-3.598 0.671,-0.832 1.669,-1.258 2.994,-1.277 z m -1.424,3.844 c -0.371,0 -0.713,0.111 -1.025,0.334 -0.313,0.222 -0.529,0.502 -0.651,0.837 v 0.399 c 0,0.703 0.159,1.269 0.475,1.699 0.316,0.43 0.711,0.645 1.184,0.645 0.488,0 0.871,-0.18 1.148,-0.539 0.281,-0.36 0.422,-0.83 0.422,-1.412 0,-0.586 -0.143,-1.059 -0.428,-1.418 -0.281,-0.364 -0.656,-0.545 -1.125,-0.545 z"
     fill="#172755"
     id="path30" />
  <rect
     x="70"
     y="154"
     width="66"
     height="52"
     fill="#ffffff"
     id="rect32" />
  <path
     d="M 105.062,176.078 101.529,184 h -1.137 l 3.522,-7.641 h -4.618 v -0.89 h 5.766 z"
     fill="#172755"
     id="path34" />
  <rect
     x="136"
     y="154"
     width="66"
     height="52"
     fill="#ffffff"
     id="rect36" />
  <circle
     cx="168.5"
     cy="179.5"
     r="19.5"
     fill="#0088f0"
     id="circle38" />
  <path
     d="m 170.728,177.695 c 0,0.426 -0.113,0.805 -0.34,1.137 -0.223,0.332 -0.525,0.592 -0.908,0.779 0.445,0.192 0.797,0.471 1.055,0.838 0.261,0.367 0.392,0.783 0.392,1.248 0,0.739 -0.25,1.326 -0.75,1.764 -0.496,0.437 -1.15,0.656 -1.963,0.656 -0.82,0 -1.478,-0.219 -1.974,-0.656 -0.493,-0.441 -0.739,-1.029 -0.739,-1.764 0,-0.461 0.125,-0.877 0.375,-1.248 0.254,-0.371 0.604,-0.652 1.049,-0.844 -0.379,-0.187 -0.678,-0.447 -0.896,-0.779 -0.219,-0.332 -0.328,-0.709 -0.328,-1.131 0,-0.718 0.23,-1.289 0.691,-1.711 0.461,-0.422 1.068,-0.632 1.822,-0.632 0.75,0 1.356,0.21 1.817,0.632 0.465,0.422 0.697,0.993 0.697,1.711 z m -0.885,3.979 c 0,-0.477 -0.152,-0.865 -0.457,-1.166 -0.301,-0.301 -0.695,-0.451 -1.183,-0.451 -0.489,0 -0.881,0.148 -1.178,0.445 -0.293,0.297 -0.44,0.687 -0.44,1.172 0,0.484 0.143,0.865 0.428,1.142 0.289,0.278 0.69,0.416 1.201,0.416 0.508,0 0.907,-0.138 1.196,-0.416 0.289,-0.281 0.433,-0.662 0.433,-1.142 z m -1.629,-5.432 c -0.425,0 -0.771,0.133 -1.037,0.399 -0.262,0.261 -0.392,0.619 -0.392,1.072 0,0.433 0.129,0.785 0.386,1.055 0.262,0.265 0.61,0.398 1.043,0.398 0.434,0 0.78,-0.133 1.037,-0.398 0.262,-0.27 0.393,-0.622 0.393,-1.055 0,-0.434 -0.135,-0.787 -0.404,-1.061 -0.27,-0.273 -0.612,-0.41 -1.026,-0.41 z"
     fill="#eeeef7"
     id="path40" />
  <rect
     x="202"
     y="154"
     width="66"
     height="52"
     fill="#ffffff"
     id="rect42" />
  <circle
     cx="234.5"
     cy="179.5"
     r="19.5"
     fill="#0088f0"
     id="circle44" />
  <path
     d="m 235.708,180.25 c -0.226,0.27 -0.498,0.486 -0.814,0.65 -0.313,0.164 -0.656,0.246 -1.031,0.246 -0.492,0 -0.922,-0.121 -1.289,-0.363 -0.364,-0.242 -0.645,-0.582 -0.844,-1.019 -0.199,-0.442 -0.299,-0.928 -0.299,-1.459 0,-0.571 0.108,-1.084 0.322,-1.541 0.219,-0.457 0.528,-0.807 0.926,-1.049 0.399,-0.242 0.863,-0.363 1.395,-0.363 0.843,0 1.507,0.316 1.992,0.949 0.488,0.629 0.732,1.488 0.732,2.578 v 0.316 c 0,1.66 -0.328,2.873 -0.984,3.639 -0.656,0.762 -1.647,1.152 -2.971,1.172 h -0.211 v -0.914 h 0.229 c 0.894,-0.016 1.582,-0.248 2.062,-0.697 0.481,-0.454 0.742,-1.168 0.785,-2.145 z m -1.669,0 c 0.363,0 0.697,-0.111 1.001,-0.334 0.309,-0.223 0.534,-0.498 0.674,-0.826 v -0.434 c 0,-0.711 -0.154,-1.289 -0.463,-1.734 -0.308,-0.445 -0.699,-0.668 -1.171,-0.668 -0.477,0 -0.86,0.183 -1.149,0.551 -0.289,0.363 -0.434,0.843 -0.434,1.441 0,0.582 0.139,1.063 0.417,1.441 0.281,0.375 0.656,0.563 1.125,0.563 z"
     fill="#eeeef7"
     id="path46" />
  <rect
     x="268"
     y="154"
     width="66"
     height="52"
     fill="#ffffff"
     id="rect48" />
  <circle
     cx="300.5"
     cy="179.5"
     r="19.5"
     fill="#0088f0"
     id="circle50" />
  <path
     d="m 297.247,184 h -1.089 v -7.225 l -2.186,0.803 v -0.984 l 3.106,-1.166 h 0.169 z m 8.526,-3.639 c 0,1.27 -0.217,2.213 -0.651,2.83 -0.433,0.618 -1.111,0.926 -2.033,0.926 -0.91,0 -1.584,-0.301 -2.021,-0.902 -0.438,-0.606 -0.664,-1.508 -0.68,-2.707 v -1.447 c 0,-1.254 0.217,-2.186 0.651,-2.795 0.433,-0.61 1.113,-0.914 2.039,-0.914 0.918,0 1.593,0.294 2.027,0.884 0.434,0.586 0.656,1.492 0.668,2.719 z m -1.084,-1.482 c 0,-0.918 -0.129,-1.586 -0.387,-2.004 -0.258,-0.422 -0.666,-0.633 -1.224,-0.633 -0.555,0 -0.959,0.209 -1.213,0.627 -0.254,0.418 -0.385,1.061 -0.393,1.928 v 1.734 c 0,0.922 0.133,1.604 0.399,2.045 0.269,0.438 0.675,0.656 1.218,0.656 0.535,0 0.932,-0.207 1.19,-0.621 0.261,-0.414 0.398,-1.066 0.41,-1.957 z"
     fill="#eeeef7"
     id="path52" />
  <rect
     x="334"
     y="154"
     width="66"
     height="52"
     fill="#ffffff"
     id="rect54" />
  <path
     d="m 363.247,184 h -1.089 v -7.225 l -2.186,0.803 v -0.984 l 3.106,-1.166 h 0.169 z m 6.739,0 h -1.09 v -7.225 l -2.186,0.803 v -0.984 l 3.106,-1.166 h 0.17 z"
     fill="#172755"
     id="path56" />
  <rect
     x="400"
     y="154"
     width="66"
     height="52"
     fill="#ffffff"
     id="rect58" />
  <path
     d="m 429.247,184 h -1.089 v -7.225 l -2.186,0.803 v -0.984 l 3.106,-1.166 h 0.169 z m 8.766,0 h -5.59 v -0.779 l 2.953,-3.282 c 0.438,-0.496 0.739,-0.898 0.903,-1.207 0.168,-0.312 0.252,-0.634 0.252,-0.966 0,-0.446 -0.135,-0.811 -0.405,-1.096 -0.269,-0.285 -0.629,-0.428 -1.078,-0.428 -0.539,0 -0.959,0.154 -1.259,0.463 -0.297,0.305 -0.446,0.731 -0.446,1.277 h -1.084 c 0,-0.785 0.252,-1.42 0.756,-1.904 0.508,-0.484 1.186,-0.726 2.033,-0.726 0.793,0 1.42,0.209 1.881,0.626 0.461,0.415 0.692,0.967 0.692,1.659 0,0.84 -0.536,1.84 -1.606,3 l -2.285,2.478 h 4.283 z"
     fill="#172755"
     id="path60" />
  <rect
     x="466"
     y="154"
     width="66"
     height="52"
     fill="#ffffff"
     id="rect62" />
  <path
     d="m 495.247,184 h -1.089 v -7.225 l -2.186,0.803 v -0.984 l 3.106,-1.166 h 0.169 z m 4.752,-4.793 h 0.815 c 0.512,-0.008 0.914,-0.143 1.207,-0.404 0.293,-0.262 0.439,-0.616 0.439,-1.061 0,-1 -0.498,-1.5 -1.494,-1.5 -0.469,0 -0.844,0.135 -1.125,0.404 -0.277,0.266 -0.416,0.62 -0.416,1.061 h -1.084 c 0,-0.676 0.246,-1.236 0.739,-1.682 0.496,-0.449 1.125,-0.673 1.886,-0.673 0.805,0 1.436,0.212 1.893,0.638 0.457,0.426 0.685,1.018 0.685,1.776 0,0.371 -0.121,0.73 -0.363,1.078 -0.238,0.347 -0.564,0.607 -0.978,0.779 0.468,0.148 0.83,0.395 1.084,0.738 0.257,0.344 0.386,0.764 0.386,1.26 0,0.766 -0.25,1.373 -0.75,1.822 -0.5,0.45 -1.15,0.674 -1.951,0.674 -0.801,0 -1.453,-0.217 -1.957,-0.65 -0.5,-0.434 -0.75,-1.006 -0.75,-1.717 h 1.09 c 0,0.449 0.146,0.809 0.439,1.078 0.293,0.27 0.686,0.404 1.178,0.404 0.524,0 0.924,-0.136 1.201,-0.41 0.278,-0.273 0.416,-0.666 0.416,-1.177 0,-0.497 -0.152,-0.877 -0.457,-1.143 -0.304,-0.266 -0.744,-0.402 -1.318,-0.41 h -0.815 z"
     fill="#172755"
     id="path64" />
  <rect
     x="70"
     y="206"
     width="66"
     height="52"
     fill="#ffffff"
     id="rect66" />
  <path
     d="m 99.247,236 h -1.089 v -7.225 l -2.186,0.803 v -0.984 l 3.106,-1.166 h 0.169 z m 7.752,-2.865 h 1.184 v 0.885 h -1.184 V 236 h -1.089 v -1.98 h -3.885 v -0.639 l 3.82,-5.912 h 1.154 z m -3.744,0 h 2.655 v -4.184 l -0.129,0.235 z"
     fill="#172755"
     id="path68" />
  <rect
     x="136"
     y="206"
     width="66"
     height="52"
     fill="#ffffff"
     id="rect70" />
  <path
     d="m 165.247,236 h -1.089 v -7.225 l -2.186,0.803 v -0.984 l 3.106,-1.166 h 0.169 z m 3.674,-4.277 0.434,-4.254 h 4.371 v 1.002 h -3.451 l -0.258,2.326 c 0.418,-0.246 0.893,-0.369 1.424,-0.369 0.777,0 1.394,0.258 1.851,0.773 0.457,0.512 0.686,1.205 0.686,2.08 0,0.879 -0.238,1.572 -0.715,2.08 -0.473,0.504 -1.135,0.756 -1.986,0.756 -0.754,0 -1.369,-0.209 -1.846,-0.627 -0.476,-0.418 -0.748,-0.996 -0.814,-1.734 h 1.025 c 0.066,0.488 0.24,0.857 0.522,1.107 0.281,0.246 0.652,0.369 1.113,0.369 0.504,0 0.898,-0.171 1.183,-0.515 0.289,-0.344 0.434,-0.819 0.434,-1.424 0,-0.57 -0.156,-1.027 -0.469,-1.371 -0.308,-0.348 -0.72,-0.522 -1.236,-0.522 -0.473,0 -0.844,0.104 -1.113,0.311 l -0.287,0.234 z"
     fill="#172755"
     id="path72" />
  <rect
     x="202"
     y="206"
     width="66"
     height="52"
     fill="#ffffff"
     id="rect74" />
  <path
     d="m 231.247,236 h -1.089 v -7.225 l -2.186,0.803 v -0.984 l 3.106,-1.166 h 0.169 z m 7.43,-8.537 v 0.92 h -0.199 c -0.844,0.015 -1.516,0.265 -2.016,0.75 -0.5,0.484 -0.789,1.166 -0.867,2.045 0.449,-0.516 1.063,-0.774 1.84,-0.774 0.742,0 1.334,0.262 1.775,0.785 0.446,0.524 0.668,1.2 0.668,2.028 0,0.879 -0.24,1.582 -0.72,2.109 -0.477,0.527 -1.118,0.791 -1.922,0.791 -0.817,0 -1.479,-0.312 -1.987,-0.937 -0.507,-0.629 -0.761,-1.438 -0.761,-2.426 v -0.416 c 0,-1.57 0.334,-2.77 1.002,-3.598 0.672,-0.832 1.67,-1.258 2.994,-1.277 z m -1.424,3.844 c -0.371,0 -0.713,0.111 -1.025,0.334 -0.313,0.222 -0.529,0.502 -0.65,0.837 v 0.399 c 0,0.703 0.158,1.269 0.474,1.699 0.317,0.43 0.711,0.645 1.184,0.645 0.488,0 0.871,-0.18 1.148,-0.539 0.281,-0.36 0.422,-0.83 0.422,-1.412 0,-0.586 -0.142,-1.059 -0.428,-1.418 -0.281,-0.364 -0.656,-0.545 -1.125,-0.545 z"
     fill="#172755"
     id="path76" />
  <rect
     x="268"
     y="206"
     width="66"
     height="52"
     fill="#ffffff"
     id="rect78" />
  <path
     d="m 297.247,236 h -1.089 v -7.225 l -2.186,0.803 v -0.984 l 3.106,-1.166 h 0.169 z m 8.684,-7.922 -3.533,7.922 h -1.137 l 3.522,-7.641 h -4.618 v -0.89 h 5.766 z"
     fill="#172755"
     id="path80" />
  <rect
     x="334"
     y="206"
     width="66"
     height="52"
     fill="#ffffff"
     id="rect82" />
  <circle
     cx="366.5"
     cy="231.5"
     r="19.5"
     fill="#ef2a82"
     id="circle84" />
  <path
     d="m 363.247,236 h -1.089 v -7.225 l -2.186,0.803 v -0.984 l 3.106,-1.166 h 0.169 z m 8.35,-6.305 c 0,0.426 -0.113,0.805 -0.34,1.137 -0.222,0.332 -0.525,0.592 -0.908,0.779 0.445,0.192 0.797,0.471 1.055,0.838 0.261,0.367 0.392,0.783 0.392,1.248 0,0.739 -0.25,1.326 -0.75,1.764 -0.496,0.437 -1.15,0.656 -1.963,0.656 -0.82,0 -1.478,-0.219 -1.974,-0.656 -0.492,-0.441 -0.738,-1.029 -0.738,-1.764 0,-0.461 0.125,-0.877 0.375,-1.248 0.253,-0.371 0.603,-0.652 1.048,-0.844 -0.379,-0.187 -0.677,-0.447 -0.896,-0.779 -0.219,-0.332 -0.328,-0.709 -0.328,-1.131 0,-0.718 0.23,-1.289 0.691,-1.711 0.461,-0.422 1.069,-0.632 1.822,-0.632 0.75,0 1.356,0.21 1.817,0.632 0.465,0.422 0.697,0.993 0.697,1.711 z m -0.885,3.979 c 0,-0.477 -0.152,-0.865 -0.457,-1.166 -0.3,-0.301 -0.695,-0.451 -1.183,-0.451 -0.489,0 -0.881,0.148 -1.178,0.445 -0.293,0.297 -0.439,0.687 -0.439,1.172 0,0.484 0.142,0.865 0.427,1.142 0.289,0.278 0.69,0.416 1.201,0.416 0.508,0 0.907,-0.138 1.196,-0.416 0.289,-0.281 0.433,-0.662 0.433,-1.142 z m -1.629,-5.432 c -0.425,0 -0.771,0.133 -1.037,0.399 -0.261,0.261 -0.392,0.619 -0.392,1.072 0,0.433 0.129,0.785 0.386,1.055 0.262,0.265 0.61,0.398 1.043,0.398 0.434,0 0.78,-0.133 1.038,-0.398 0.261,-0.27 0.392,-0.622 0.392,-1.055 0,-0.434 -0.135,-0.787 -0.404,-1.061 -0.27,-0.273 -0.612,-0.41 -1.026,-0.41 z"
     fill="#eeeef7"
     id="path86" />
  <rect
     x="400"
     y="206"
     width="66"
     height="52"
     fill="#ffffff"
     id="rect88" />
  <path
     d="m 429.247,236 h -1.089 v -7.225 l -2.186,0.803 v -0.984 l 3.106,-1.166 h 0.169 z m 7.331,-3.75 c -0.227,0.27 -0.498,0.486 -0.815,0.65 -0.312,0.164 -0.656,0.246 -1.031,0.246 -0.492,0 -0.922,-0.121 -1.289,-0.363 -0.363,-0.242 -0.645,-0.582 -0.844,-1.019 -0.199,-0.442 -0.299,-0.928 -0.299,-1.459 0,-0.571 0.108,-1.084 0.322,-1.541 0.219,-0.457 0.528,-0.807 0.926,-1.049 0.399,-0.242 0.864,-0.363 1.395,-0.363 0.844,0 1.508,0.316 1.992,0.949 0.488,0.629 0.732,1.488 0.732,2.578 v 0.316 c 0,1.66 -0.328,2.873 -0.984,3.639 -0.656,0.762 -1.646,1.152 -2.971,1.172 h -0.211 v -0.914 h 0.229 c 0.894,-0.016 1.582,-0.248 2.062,-0.697 0.481,-0.454 0.743,-1.168 0.786,-2.145 z m -1.67,0 c 0.363,0 0.697,-0.111 1.002,-0.334 0.308,-0.223 0.533,-0.498 0.673,-0.826 v -0.434 c 0,-0.711 -0.154,-1.289 -0.462,-1.734 -0.309,-0.445 -0.7,-0.668 -1.172,-0.668 -0.477,0 -0.86,0.183 -1.149,0.551 -0.289,0.363 -0.433,0.843 -0.433,1.441 0,0.582 0.138,1.063 0.416,1.441 0.281,0.375 0.656,0.563 1.125,0.563 z"
     fill="#172755"
     id="path90" />
  <rect
     x="466"
     y="206"
     width="66"
     height="52"
     fill="#ffffff"
     id="rect92" />
  <path
     d="m 497.275,236 h -5.59 v -0.779 l 2.953,-3.282 c 0.438,-0.496 0.738,-0.898 0.902,-1.207 0.168,-0.312 0.252,-0.634 0.252,-0.966 0,-0.446 -0.134,-0.811 -0.404,-1.096 -0.269,-0.285 -0.629,-0.428 -1.078,-0.428 -0.539,0 -0.959,0.154 -1.26,0.463 -0.297,0.305 -0.445,0.731 -0.445,1.277 h -1.084 c 0,-0.785 0.252,-1.42 0.756,-1.904 0.508,-0.484 1.185,-0.726 2.033,-0.726 0.793,0 1.42,0.209 1.881,0.626 0.461,0.415 0.691,0.967 0.691,1.659 0,0.84 -0.535,1.84 -1.605,3 l -2.285,2.478 h 4.283 z m 6.498,-3.639 c 0,1.27 -0.217,2.213 -0.651,2.83 -0.433,0.618 -1.111,0.926 -2.033,0.926 -0.91,0 -1.584,-0.301 -2.021,-0.902 -0.438,-0.606 -0.664,-1.508 -0.68,-2.707 v -1.447 c 0,-1.254 0.217,-2.186 0.651,-2.795 0.433,-0.61 1.113,-0.914 2.039,-0.914 0.918,0 1.593,0.294 2.027,0.884 0.434,0.586 0.656,1.492 0.668,2.719 z m -1.084,-1.482 c 0,-0.918 -0.129,-1.586 -0.387,-2.004 -0.258,-0.422 -0.666,-0.633 -1.224,-0.633 -0.555,0 -0.959,0.209 -1.213,0.627 -0.254,0.418 -0.385,1.061 -0.393,1.928 v 1.734 c 0,0.922 0.133,1.604 0.399,2.045 0.269,0.438 0.675,0.656 1.218,0.656 0.535,0 0.932,-0.207 1.19,-0.621 0.261,-0.414 0.398,-1.066 0.41,-1.957 z"
     fill="#172755"
     id="path94" />
  <rect
     x="70"
     y="258"
     width="66"
     height="52"
     fill="#ffffff"
     id="rect96" />
  <path
     d="m 101.275,288 h -5.59 v -0.779 l 2.953,-3.282 c 0.438,-0.496 0.738,-0.898 0.902,-1.207 0.168,-0.312 0.252,-0.634 0.252,-0.966 0,-0.446 -0.134,-0.811 -0.404,-1.096 -0.269,-0.285 -0.629,-0.428 -1.078,-0.428 -0.539,0 -0.959,0.154 -1.26,0.463 -0.297,0.305 -0.445,0.731 -0.445,1.277 h -1.084 c 0,-0.785 0.252,-1.42 0.756,-1.904 0.508,-0.484 1.185,-0.726 2.033,-0.726 0.793,0 1.42,0.209 1.881,0.626 0.461,0.415 0.691,0.967 0.691,1.659 0,0.84 -0.535,1.84 -1.605,3 l -2.285,2.478 h 4.283 z m 4.711,0 h -1.09 v -7.225 l -2.186,0.803 v -0.984 l 3.106,-1.166 h 0.17 z"
     fill="#172755"
     id="path98" />
  <rect
     x="136"
     y="258"
     width="66"
     height="52"
     fill="#ffffff"
     id="rect100" />
  <path
     d="m 167.275,288 h -5.59 v -0.779 l 2.953,-3.282 c 0.438,-0.496 0.738,-0.898 0.902,-1.207 0.168,-0.312 0.252,-0.634 0.252,-0.966 0,-0.446 -0.134,-0.811 -0.404,-1.096 -0.269,-0.285 -0.629,-0.428 -1.078,-0.428 -0.539,0 -0.959,0.154 -1.26,0.463 -0.297,0.305 -0.445,0.731 -0.445,1.277 h -1.084 c 0,-0.785 0.252,-1.42 0.756,-1.904 0.508,-0.484 1.185,-0.726 2.033,-0.726 0.793,0 1.42,0.209 1.881,0.626 0.461,0.415 0.691,0.967 0.691,1.659 0,0.84 -0.535,1.84 -1.605,3 l -2.285,2.478 h 4.283 z m 6.738,0 h -5.59 v -0.779 l 2.953,-3.282 c 0.438,-0.496 0.739,-0.898 0.903,-1.207 0.168,-0.312 0.252,-0.634 0.252,-0.966 0,-0.446 -0.135,-0.811 -0.405,-1.096 -0.269,-0.285 -0.629,-0.428 -1.078,-0.428 -0.539,0 -0.959,0.154 -1.259,0.463 -0.297,0.305 -0.446,0.731 -0.446,1.277 h -1.084 c 0,-0.785 0.252,-1.42 0.756,-1.904 0.508,-0.484 1.186,-0.726 2.033,-0.726 0.793,0 1.42,0.209 1.881,0.626 0.461,0.415 0.692,0.967 0.692,1.659 0,0.84 -0.536,1.84 -1.606,3 l -2.285,2.478 h 4.283 z"
     fill="#172755"
     id="path102" />
  <rect
     x="202"
     y="258"
     width="66"
     height="52"
     fill="#ffffff"
     id="rect104" />
  <path
     d="m 233.275,288 h -5.59 v -0.779 l 2.953,-3.282 c 0.438,-0.496 0.738,-0.898 0.902,-1.207 0.168,-0.312 0.252,-0.634 0.252,-0.966 0,-0.446 -0.134,-0.811 -0.404,-1.096 -0.269,-0.285 -0.629,-0.428 -1.078,-0.428 -0.539,0 -0.959,0.154 -1.26,0.463 -0.297,0.305 -0.445,0.731 -0.445,1.277 h -1.084 c 0,-0.785 0.252,-1.42 0.756,-1.904 0.508,-0.484 1.185,-0.726 2.033,-0.726 0.793,0 1.42,0.209 1.881,0.626 0.461,0.415 0.691,0.967 0.691,1.659 0,0.84 -0.535,1.84 -1.605,3 l -2.285,2.478 h 4.283 z m 2.724,-4.793 h 0.815 c 0.512,-0.008 0.914,-0.143 1.207,-0.404 0.293,-0.262 0.439,-0.616 0.439,-1.061 0,-1 -0.498,-1.5 -1.494,-1.5 -0.469,0 -0.844,0.135 -1.125,0.404 -0.277,0.266 -0.416,0.62 -0.416,1.061 h -1.084 c 0,-0.676 0.246,-1.236 0.739,-1.682 0.496,-0.449 1.125,-0.673 1.886,-0.673 0.805,0 1.436,0.212 1.893,0.638 0.457,0.426 0.685,1.018 0.685,1.776 0,0.371 -0.121,0.73 -0.363,1.078 -0.238,0.347 -0.564,0.607 -0.978,0.779 0.468,0.148 0.83,0.395 1.084,0.738 0.257,0.344 0.386,0.764 0.386,1.26 0,0.766 -0.25,1.373 -0.75,1.822 -0.5,0.45 -1.15,0.674 -1.951,0.674 -0.801,0 -1.453,-0.217 -1.957,-0.65 -0.5,-0.434 -0.75,-1.006 -0.75,-1.717 h 1.09 c 0,0.449 0.146,0.809 0.439,1.078 0.293,0.27 0.686,0.404 1.178,0.404 0.524,0 0.924,-0.136 1.201,-0.41 0.278,-0.273 0.416,-0.666 0.416,-1.177 0,-0.497 -0.152,-0.877 -0.457,-1.143 -0.304,-0.266 -0.744,-0.402 -1.318,-0.41 h -0.815 z"
     fill="#172755"
     id="path106" />
  <rect
     x="268"
     y="258"
     width="66"
     height="52"
     fill="#ffffff"
     id="rect108" />
  <path
     d="m 299.275,288 h -5.59 v -0.779 l 2.953,-3.282 c 0.438,-0.496 0.738,-0.898 0.902,-1.207 0.168,-0.312 0.252,-0.634 0.252,-0.966 0,-0.446 -0.134,-0.811 -0.404,-1.096 -0.269,-0.285 -0.629,-0.428 -1.078,-0.428 -0.539,0 -0.959,0.154 -1.26,0.463 -0.297,0.305 -0.445,0.731 -0.445,1.277 h -1.084 c 0,-0.785 0.252,-1.42 0.756,-1.904 0.508,-0.484 1.185,-0.726 2.033,-0.726 0.793,0 1.42,0.209 1.881,0.626 0.461,0.415 0.691,0.967 0.691,1.659 0,0.84 -0.535,1.84 -1.605,3 l -2.285,2.478 h 4.283 z m 5.724,-2.865 h 1.184 v 0.885 h -1.184 V 288 h -1.089 v -1.98 h -3.885 v -0.639 l 3.82,-5.912 h 1.154 z m -3.744,0 h 2.655 v -4.184 l -0.129,0.235 z"
     fill="#172755"
     id="path110" />
  <rect
     x="334"
     y="258"
     width="66"
     height="52"
     fill="#ffffff"
     id="rect112" />
  <path
     d="m 365.275,288 h -5.59 v -0.779 l 2.953,-3.282 c 0.438,-0.496 0.738,-0.898 0.902,-1.207 0.168,-0.312 0.252,-0.634 0.252,-0.966 0,-0.446 -0.134,-0.811 -0.404,-1.096 -0.269,-0.285 -0.629,-0.428 -1.078,-0.428 -0.539,0 -0.959,0.154 -1.26,0.463 -0.297,0.305 -0.445,0.731 -0.445,1.277 h -1.084 c 0,-0.785 0.252,-1.42 0.756,-1.904 0.508,-0.484 1.185,-0.726 2.033,-0.726 0.793,0 1.42,0.209 1.881,0.626 0.461,0.415 0.691,0.967 0.691,1.659 0,0.84 -0.535,1.84 -1.605,3 l -2.285,2.478 h 4.283 z m 1.646,-4.277 0.434,-4.254 h 4.371 v 1.002 h -3.451 l -0.258,2.326 c 0.418,-0.246 0.893,-0.369 1.424,-0.369 0.777,0 1.394,0.258 1.851,0.773 0.457,0.512 0.686,1.205 0.686,2.08 0,0.879 -0.238,1.572 -0.715,2.08 -0.473,0.504 -1.135,0.756 -1.986,0.756 -0.754,0 -1.369,-0.209 -1.846,-0.627 -0.476,-0.418 -0.748,-0.996 -0.814,-1.734 h 1.025 c 0.066,0.488 0.24,0.857 0.522,1.107 0.281,0.246 0.652,0.369 1.113,0.369 0.504,0 0.898,-0.171 1.183,-0.515 0.289,-0.344 0.434,-0.819 0.434,-1.424 0,-0.57 -0.156,-1.027 -0.469,-1.371 -0.308,-0.348 -0.72,-0.522 -1.236,-0.522 -0.473,0 -0.844,0.104 -1.113,0.311 l -0.287,0.234 z"
     fill="#172755"
     id="path114" />
  <rect
     x="400"
     y="258"
     width="66"
     height="52"
     fill="#ffffff"
     id="rect116" />
  <path
     d="m 431.275,288 h -5.59 v -0.779 l 2.953,-3.282 c 0.438,-0.496 0.738,-0.898 0.902,-1.207 0.168,-0.312 0.252,-0.634 0.252,-0.966 0,-0.446 -0.134,-0.811 -0.404,-1.096 -0.269,-0.285 -0.629,-0.428 -1.078,-0.428 -0.539,0 -0.959,0.154 -1.26,0.463 -0.297,0.305 -0.445,0.731 -0.445,1.277 h -1.084 c 0,-0.785 0.252,-1.42 0.756,-1.904 0.508,-0.484 1.185,-0.726 2.033,-0.726 0.793,0 1.42,0.209 1.881,0.626 0.461,0.415 0.691,0.967 0.691,1.659 0,0.84 -0.535,1.84 -1.605,3 l -2.285,2.478 h 4.283 z m 5.402,-8.537 v 0.92 h -0.199 c -0.844,0.015 -1.516,0.265 -2.016,0.75 -0.5,0.484 -0.789,1.166 -0.867,2.045 0.449,-0.516 1.063,-0.774 1.84,-0.774 0.742,0 1.334,0.262 1.775,0.785 0.446,0.524 0.668,1.2 0.668,2.028 0,0.879 -0.24,1.582 -0.72,2.109 -0.477,0.527 -1.118,0.791 -1.922,0.791 -0.817,0 -1.479,-0.312 -1.987,-0.937 -0.507,-0.629 -0.761,-1.438 -0.761,-2.426 v -0.416 c 0,-1.57 0.334,-2.77 1.002,-3.598 0.672,-0.832 1.67,-1.258 2.994,-1.277 z m -1.424,3.844 c -0.371,0 -0.713,0.111 -1.025,0.334 -0.313,0.222 -0.529,0.502 -0.65,0.837 v 0.399 c 0,0.703 0.158,1.269 0.474,1.699 0.317,0.43 0.711,0.645 1.184,0.645 0.488,0 0.871,-0.18 1.148,-0.539 0.281,-0.36 0.422,-0.83 0.422,-1.412 0,-0.586 -0.142,-1.059 -0.428,-1.418 -0.281,-0.364 -0.656,-0.545 -1.125,-0.545 z"
     fill="#172755"
     id="path118" />
  <rect
     x="466"
     y="258"
     width="66"
     height="52"
     fill="#ffffff"
     id="rect120" />
  <path
     d="m 497.275,288 h -5.59 v -0.779 l 2.953,-3.282 c 0.438,-0.496 0.738,-0.898 0.902,-1.207 0.168,-0.312 0.252,-0.634 0.252,-0.966 0,-0.446 -0.134,-0.811 -0.404,-1.096 -0.269,-0.285 -0.629,-0.428 -1.078,-0.428 -0.539,0 -0.959,0.154 -1.26,0.463 -0.297,0.305 -0.445,0.731 -0.445,1.277 h -1.084 c 0,-0.785 0.252,-1.42 0.756,-1.904 0.508,-0.484 1.185,-0.726 2.033,-0.726 0.793,0 1.42,0.209 1.881,0.626 0.461,0.415 0.691,0.967 0.691,1.659 0,0.84 -0.535,1.84 -1.605,3 l -2.285,2.478 h 4.283 z m 6.656,-7.922 -3.533,7.922 h -1.137 l 3.522,-7.641 h -4.618 v -0.89 h 5.766 z"
     fill="#172755"
     id="path122" />
  <rect
     x="70"
     y="310"
     width="66"
     height="52"
     fill="#ffffff"
     id="rect124" />
  <path
     d="m 101.275,340 h -5.59 v -0.779 l 2.953,-3.282 c 0.438,-0.496 0.738,-0.898 0.902,-1.207 0.168,-0.312 0.252,-0.634 0.252,-0.966 0,-0.446 -0.134,-0.811 -0.404,-1.096 -0.269,-0.285 -0.629,-0.428 -1.078,-0.428 -0.539,0 -0.959,0.154 -1.26,0.463 -0.297,0.305 -0.445,0.731 -0.445,1.277 h -1.084 c 0,-0.785 0.252,-1.42 0.756,-1.904 0.508,-0.484 1.185,-0.726 2.033,-0.726 0.793,0 1.42,0.209 1.881,0.627 0.461,0.414 0.691,0.966 0.691,1.658 0,0.84 -0.535,1.84 -1.605,3 l -2.285,2.478 h 4.283 z m 6.322,-6.305 c 0,0.426 -0.113,0.805 -0.34,1.137 -0.222,0.332 -0.525,0.592 -0.908,0.779 0.445,0.192 0.797,0.471 1.055,0.838 0.261,0.367 0.392,0.783 0.392,1.248 0,0.739 -0.25,1.326 -0.75,1.764 -0.496,0.437 -1.15,0.656 -1.963,0.656 -0.82,0 -1.478,-0.219 -1.974,-0.656 -0.492,-0.441 -0.738,-1.029 -0.738,-1.764 0,-0.461 0.125,-0.877 0.375,-1.248 0.253,-0.371 0.603,-0.652 1.048,-0.844 -0.379,-0.187 -0.677,-0.447 -0.896,-0.779 -0.219,-0.332 -0.328,-0.709 -0.328,-1.131 0,-0.718 0.23,-1.289 0.691,-1.711 0.461,-0.422 1.069,-0.632 1.822,-0.632 0.75,0 1.356,0.21 1.817,0.632 0.465,0.422 0.697,0.993 0.697,1.711 z m -0.885,3.979 c 0,-0.477 -0.152,-0.865 -0.457,-1.166 -0.3,-0.301 -0.695,-0.451 -1.183,-0.451 -0.489,0 -0.881,0.148 -1.178,0.445 -0.293,0.297 -0.439,0.687 -0.439,1.172 0,0.484 0.142,0.865 0.427,1.142 0.289,0.278 0.69,0.416 1.201,0.416 0.508,0 0.907,-0.138 1.196,-0.416 0.289,-0.281 0.433,-0.662 0.433,-1.142 z m -1.629,-5.432 c -0.425,0 -0.771,0.133 -1.037,0.399 -0.261,0.261 -0.392,0.619 -0.392,1.072 0,0.433 0.129,0.785 0.386,1.055 0.262,0.265 0.61,0.398 1.043,0.398 0.434,0 0.78,-0.133 1.038,-0.398 0.261,-0.27 0.392,-0.622 0.392,-1.055 0,-0.434 -0.135,-0.787 -0.404,-1.061 -0.27,-0.273 -0.612,-0.41 -1.026,-0.41 z"
     fill="#172755"
     id="path126" />
  <rect
     x="136"
     y="310"
     width="66"
     height="52"
     fill="#ffffff"
     id="rect128" />
  <path
     d="m 167.275,340 h -5.59 v -0.779 l 2.953,-3.282 c 0.438,-0.496 0.738,-0.898 0.902,-1.207 0.168,-0.312 0.252,-0.634 0.252,-0.966 0,-0.446 -0.134,-0.811 -0.404,-1.096 -0.269,-0.285 -0.629,-0.428 -1.078,-0.428 -0.539,0 -0.959,0.154 -1.26,0.463 -0.297,0.305 -0.445,0.731 -0.445,1.277 h -1.084 c 0,-0.785 0.252,-1.42 0.756,-1.904 0.508,-0.484 1.185,-0.726 2.033,-0.726 0.793,0 1.42,0.209 1.881,0.627 0.461,0.414 0.691,0.966 0.691,1.658 0,0.84 -0.535,1.84 -1.605,3 l -2.285,2.478 h 4.283 z m 5.303,-3.75 c -0.227,0.27 -0.498,0.486 -0.815,0.65 -0.312,0.164 -0.656,0.246 -1.031,0.246 -0.492,0 -0.922,-0.121 -1.289,-0.363 -0.363,-0.242 -0.645,-0.582 -0.844,-1.019 -0.199,-0.442 -0.299,-0.928 -0.299,-1.459 0,-0.571 0.108,-1.084 0.322,-1.541 0.219,-0.457 0.528,-0.807 0.926,-1.049 0.399,-0.242 0.864,-0.363 1.395,-0.363 0.844,0 1.508,0.316 1.992,0.949 0.488,0.629 0.732,1.488 0.732,2.578 v 0.316 c 0,1.66 -0.328,2.873 -0.984,3.639 -0.656,0.762 -1.646,1.152 -2.971,1.172 h -0.211 v -0.914 h 0.229 c 0.894,-0.016 1.582,-0.248 2.062,-0.697 0.481,-0.454 0.743,-1.168 0.786,-2.145 z m -1.67,0 c 0.363,0 0.697,-0.111 1.002,-0.334 0.308,-0.223 0.533,-0.498 0.673,-0.826 v -0.434 c 0,-0.711 -0.154,-1.289 -0.462,-1.734 -0.309,-0.445 -0.7,-0.668 -1.172,-0.668 -0.477,0 -0.86,0.184 -1.149,0.551 -0.289,0.363 -0.433,0.843 -0.433,1.441 0,0.582 0.138,1.063 0.416,1.442 0.281,0.374 0.656,0.562 1.125,0.562 z"
     fill="#172755"
     id="path130" />
  <rect
     x="202"
     y="310"
     width="66"
     height="52"
     fill="#ffffff"
     id="rect132" />
  <path
     d="m 229.261,335.207 h 0.815 c 0.511,-0.008 0.914,-0.143 1.207,-0.404 0.293,-0.262 0.439,-0.615 0.439,-1.061 0,-1 -0.498,-1.5 -1.494,-1.5 -0.469,0 -0.844,0.135 -1.125,0.404 -0.277,0.266 -0.416,0.62 -0.416,1.061 h -1.084 c 0,-0.676 0.246,-1.236 0.738,-1.682 0.496,-0.449 1.125,-0.673 1.887,-0.673 0.805,0 1.436,0.212 1.893,0.638 0.457,0.426 0.685,1.018 0.685,1.776 0,0.371 -0.121,0.73 -0.363,1.078 -0.238,0.347 -0.565,0.607 -0.979,0.779 0.469,0.148 0.83,0.395 1.084,0.738 0.258,0.344 0.387,0.764 0.387,1.26 0,0.766 -0.25,1.373 -0.75,1.822 -0.5,0.45 -1.15,0.674 -1.951,0.674 -0.801,0 -1.453,-0.217 -1.957,-0.65 -0.5,-0.434 -0.75,-1.006 -0.75,-1.717 h 1.09 c 0,0.449 0.146,0.809 0.439,1.078 0.293,0.27 0.686,0.404 1.178,0.404 0.523,0 0.924,-0.136 1.201,-0.41 0.277,-0.273 0.416,-0.666 0.416,-1.177 0,-0.497 -0.152,-0.877 -0.457,-1.143 -0.305,-0.266 -0.744,-0.402 -1.318,-0.41 h -0.815 z m 10.512,1.154 c 0,1.27 -0.217,2.213 -0.651,2.83 -0.433,0.618 -1.111,0.926 -2.033,0.926 -0.91,0 -1.584,-0.301 -2.021,-0.902 -0.438,-0.606 -0.664,-1.508 -0.68,-2.707 v -1.447 c 0,-1.254 0.217,-2.186 0.651,-2.795 0.433,-0.61 1.113,-0.914 2.039,-0.914 0.918,0 1.593,0.294 2.027,0.884 0.434,0.586 0.656,1.493 0.668,2.719 z m -1.084,-1.482 c 0,-0.918 -0.129,-1.586 -0.387,-2.004 -0.258,-0.422 -0.666,-0.633 -1.224,-0.633 -0.555,0 -0.959,0.209 -1.213,0.627 -0.254,0.418 -0.385,1.061 -0.393,1.928 v 1.734 c 0,0.922 0.133,1.604 0.399,2.045 0.269,0.438 0.675,0.656 1.218,0.656 0.535,0 0.932,-0.207 1.19,-0.621 0.261,-0.414 0.398,-1.066 0.41,-1.957 z"
     fill="#172755"
     id="path134" />
  <rect
     x="268"
     y="310"
     width="66"
     height="52"
     fill="#ffffff"
     id="rect136" />
  <path
     d="m 295.261,335.207 h 0.815 c 0.511,-0.008 0.914,-0.143 1.207,-0.404 0.293,-0.262 0.439,-0.615 0.439,-1.061 0,-1 -0.498,-1.5 -1.494,-1.5 -0.469,0 -0.844,0.135 -1.125,0.404 -0.277,0.266 -0.416,0.62 -0.416,1.061 h -1.084 c 0,-0.676 0.246,-1.236 0.738,-1.682 0.496,-0.449 1.125,-0.673 1.887,-0.673 0.805,0 1.436,0.212 1.893,0.638 0.457,0.426 0.685,1.018 0.685,1.776 0,0.371 -0.121,0.73 -0.363,1.078 -0.238,0.347 -0.565,0.607 -0.979,0.779 0.469,0.148 0.83,0.395 1.084,0.738 0.258,0.344 0.387,0.764 0.387,1.26 0,0.766 -0.25,1.373 -0.75,1.822 -0.5,0.45 -1.15,0.674 -1.951,0.674 -0.801,0 -1.453,-0.217 -1.957,-0.65 -0.5,-0.434 -0.75,-1.006 -0.75,-1.717 h 1.09 c 0,0.449 0.146,0.809 0.439,1.078 0.293,0.27 0.686,0.404 1.178,0.404 0.523,0 0.924,-0.136 1.201,-0.41 0.277,-0.273 0.416,-0.666 0.416,-1.177 0,-0.497 -0.152,-0.877 -0.457,-1.143 -0.305,-0.266 -0.744,-0.402 -1.318,-0.41 h -0.815 z m 8.725,4.793 h -1.09 v -7.225 l -2.186,0.803 v -0.984 l 3.106,-1.166 h 0.17 z"
     fill="#172755"
     id="path138" />
  <rect
     x="334"
     y="310"
     width="66"
     height="52"
     fill="#ffffff"
     id="rect140" />
  <rect
     x="400"
     y="310"
     width="66"
     height="52"
     fill="#ffffff"
     id="rect142" />
  <rect
     x="466"
     y="310"
     width="66"
     height="52"
     fill="#ffffff"
     id="rect144" />
  <path
     d="m 89.803,61.4688 2.789,6.9609 2.789,-6.9609 H 96.84 V 70 H 95.715 V 66.6777 L 95.82,63.0918 93.02,70 h -0.862 l -2.795,-6.8906 0.112,3.5683 V 70 H 88.35 v -8.5312 z m 15.586,4.541 c 0,0.8359 -0.141,1.5664 -0.422,2.1914 -0.281,0.6211 -0.68,1.0957 -1.196,1.4238 -0.515,0.3281 -1.117,0.4922 -1.804,0.4922 -0.672,0 -1.268,-0.1641 -1.787,-0.4922 -0.52,-0.332 -0.924,-0.8027 -1.213,-1.4121 -0.285,-0.6133 -0.432,-1.3223 -0.44,-2.127 v -0.6152 c 0,-0.8203 0.143,-1.5449 0.428,-2.1738 0.285,-0.6289 0.688,-1.1094 1.207,-1.4414 0.524,-0.336 1.121,-0.5039 1.793,-0.5039 0.684,0 1.285,0.166 1.805,0.498 0.523,0.3281 0.926,0.8066 1.207,1.4356 0.281,0.625 0.422,1.3535 0.422,2.1855 z M 104.27,65.459 c 0,-1.0117 -0.204,-1.7871 -0.61,-2.3262 -0.406,-0.543 -0.974,-0.8144 -1.705,-0.8144 -0.711,0 -1.271,0.2714 -1.682,0.8144 -0.406,0.5391 -0.615,1.2891 -0.627,2.25 v 0.627 c 0,0.9804 0.206,1.7519 0.616,2.3144 0.414,0.5586 0.982,0.8379 1.705,0.8379 0.726,0 1.289,-0.2637 1.687,-0.791 0.399,-0.5313 0.604,-1.291 0.616,-2.2793 z M 113.633,70 h -1.131 l -4.295,-6.5742 V 70 h -1.131 v -8.5312 h 1.131 l 4.307,6.6035 v -6.6035 h 1.119 z"
     fill="#8794ba"
     id="path146" />
  <path
     d="m 163.004,62.3945 h -2.742 V 70 h -1.119 v -7.6055 h -2.737 v -0.9257 h 6.598 z m 7.271,-0.9257 v 5.8007 c -0.004,0.8047 -0.257,1.4629 -0.761,1.9746 -0.5,0.5118 -1.18,0.7989 -2.039,0.8614 l -0.299,0.0117 c -0.934,0 -1.678,-0.252 -2.233,-0.7559 -0.554,-0.5039 -0.836,-1.1972 -0.843,-2.0801 v -5.8124 h 1.113 v 5.7773 c 0,0.6172 0.17,1.0977 0.51,1.4414 0.339,0.3398 0.824,0.5098 1.453,0.5098 0.636,0 1.123,-0.17 1.459,-0.5098 0.34,-0.3398 0.51,-0.8184 0.51,-1.4355 v -5.7832 z m 6.598,4.5878 h -3.697 v 3.0235 h 4.295 V 70 h -5.42 v -8.5312 h 5.361 v 0.9257 h -4.236 v 2.7422 h 3.697 z"
     fill="#8794ba"
     id="path148" />
  <path
     d="m 223.156,67.3105 0.164,1.125 0.241,-1.0136 1.687,-5.9531 h 0.949 l 1.647,5.9531 0.234,1.0312 0.182,-1.1484 1.324,-5.8359 h 1.131 L 228.646,70 h -1.025 l -1.758,-6.2168 -0.134,-0.6504 -0.135,0.6504 L 223.771,70 h -1.025 l -2.062,-8.5312 h 1.125 z m 13.635,-1.2539 h -3.697 v 3.0235 h 4.295 V 70 h -5.42 v -8.5312 h 5.361 v 0.9257 h -4.236 v 2.7422 h 3.697 z M 238.789,70 v -8.5312 h 2.408 c 0.742,0 1.399,0.164 1.969,0.4921 0.57,0.3282 1.01,0.795 1.318,1.4004 0.313,0.6055 0.471,1.3008 0.475,2.086 v 0.5449 c 0,0.8047 -0.156,1.5098 -0.469,2.1152 -0.308,0.6055 -0.752,1.0703 -1.33,1.3946 -0.574,0.3242 -1.244,0.4902 -2.01,0.498 z m 1.125,-7.6055 v 6.6856 h 1.184 c 0.867,0 1.541,-0.2696 2.021,-0.8086 0.485,-0.5391 0.727,-1.3067 0.727,-2.3027 v -0.4981 c 0,-0.9687 -0.229,-1.7207 -0.686,-2.2559 -0.453,-0.539 -1.098,-0.8125 -1.933,-0.8203 z"
     fill="#8794ba"
     id="path150" />
  <path
     d="m 294.137,62.3945 h -2.742 V 70 h -1.12 v -7.6055 h -2.736 v -0.9257 h 6.598 z M 301.959,70 h -1.131 v -3.9434 h -4.301 V 70 h -1.125 v -8.5312 h 1.125 v 3.6679 h 4.301 v -3.6679 h 1.131 z m 8.004,-8.5312 v 5.8007 c -0.004,0.8047 -0.258,1.4629 -0.762,1.9746 -0.5,0.5118 -1.18,0.7989 -2.039,0.8614 l -0.299,0.0117 c -0.933,0 -1.677,-0.252 -2.232,-0.7559 -0.555,-0.5039 -0.836,-1.1972 -0.844,-2.0801 v -5.8124 h 1.113 v 5.7773 c 0,0.6172 0.17,1.0977 0.51,1.4414 0.34,0.3398 0.824,0.5098 1.453,0.5098 0.637,0 1.123,-0.17 1.459,-0.5098 0.34,-0.3398 0.51,-0.8184 0.51,-1.4355 v -5.7832 z"
     fill="#8794ba"
     id="path152" />
  <path
     d="m 362.047,66.2324 h -3.58 V 70 h -1.125 v -8.5312 h 5.285 v 0.9257 h -4.16 v 2.918 h 3.58 z m 5.057,0.3164 H 365.1 V 70 h -1.131 v -8.5312 h 2.824 c 0.961,0 1.699,0.2187 2.215,0.6562 0.519,0.4375 0.779,1.0742 0.779,1.9102 0,0.5312 -0.144,0.9941 -0.433,1.3886 -0.286,0.3946 -0.684,0.6895 -1.196,0.8848 l 2.004,3.6211 V 70 h -1.207 z M 365.1,65.6289 h 1.728 c 0.559,0 1.002,-0.1445 1.33,-0.4336 0.332,-0.2891 0.498,-0.6758 0.498,-1.1601 0,-0.5274 -0.158,-0.9317 -0.474,-1.2129 -0.313,-0.2813 -0.766,-0.4239 -1.36,-0.4278 H 365.1 Z M 372.576,70 h -1.125 v -8.5312 h 1.125 z"
     fill="#8794ba"
     id="path154" />
  <path
     d="m 423.828,66.1973 c -0.965,-0.2774 -1.668,-0.6172 -2.109,-1.0196 -0.438,-0.4062 -0.657,-0.9062 -0.657,-1.5 0,-0.6718 0.268,-1.2265 0.803,-1.664 0.539,-0.4414 1.239,-0.6621 2.098,-0.6621 0.586,0 1.107,0.1132 1.564,0.3398 0.461,0.2266 0.817,0.5391 1.067,0.9375 0.254,0.3984 0.381,0.834 0.381,1.3066 h -1.131 c 0,-0.5156 -0.164,-0.9199 -0.492,-1.2128 -0.329,-0.2969 -0.791,-0.4454 -1.389,-0.4454 -0.555,0 -0.988,0.1231 -1.301,0.3692 -0.308,0.2422 -0.463,0.5801 -0.463,1.0137 0,0.3476 0.147,0.6425 0.44,0.8847 0.297,0.2383 0.799,0.4571 1.506,0.6563 0.71,0.1992 1.265,0.4199 1.664,0.6621 0.402,0.2383 0.699,0.5176 0.89,0.8379 0.196,0.3203 0.293,0.6972 0.293,1.1308 0,0.6914 -0.269,1.2461 -0.808,1.6641 -0.539,0.4141 -1.26,0.6211 -2.163,0.6211 -0.585,0 -1.132,-0.1113 -1.64,-0.334 -0.508,-0.2266 -0.901,-0.5352 -1.178,-0.9258 -0.273,-0.3906 -0.41,-0.834 -0.41,-1.3301 h 1.131 c 0,0.5157 0.189,0.9239 0.568,1.2247 0.383,0.2968 0.893,0.4453 1.529,0.4453 0.594,0 1.049,-0.1211 1.366,-0.3633 0.316,-0.2422 0.474,-0.5723 0.474,-0.9902 0,-0.418 -0.146,-0.7403 -0.439,-0.9668 -0.293,-0.2305 -0.824,-0.4571 -1.594,-0.6797 z m 9.322,1.5761 h -3.574 L 428.773,70 h -1.16 l 3.258,-8.5312 h 0.984 L 435.119,70 h -1.154 z m -3.234,-0.9257 h 2.9 l -1.453,-3.9903 z M 441.4,62.3945 h -2.742 V 70 h -1.119 v -7.6055 h -2.736 v -0.9257 h 6.597 z"
     fill="#8794ba"
     id="path156" />
  <path
     d="m 488.773,66.1973 c -0.964,-0.2774 -1.668,-0.6172 -2.109,-1.0196 -0.437,-0.4062 -0.656,-0.9062 -0.656,-1.5 0,-0.6718 0.267,-1.2265 0.803,-1.664 0.539,-0.4414 1.238,-0.6621 2.097,-0.6621 0.586,0 1.108,0.1132 1.565,0.3398 0.461,0.2266 0.816,0.5391 1.066,0.9375 0.254,0.3984 0.381,0.834 0.381,1.3066 h -1.131 c 0,-0.5156 -0.164,-0.9199 -0.492,-1.2128 -0.328,-0.2969 -0.791,-0.4454 -1.389,-0.4454 -0.554,0 -0.988,0.1231 -1.301,0.3692 -0.308,0.2422 -0.462,0.5801 -0.462,1.0137 0,0.3476 0.146,0.6425 0.439,0.8847 0.297,0.2383 0.799,0.4571 1.506,0.6563 0.711,0.1992 1.265,0.4199 1.664,0.6621 0.402,0.2383 0.699,0.5176 0.891,0.8379 0.195,0.3203 0.293,0.6972 0.293,1.1308 0,0.6914 -0.27,1.2461 -0.809,1.6641 -0.539,0.4141 -1.26,0.6211 -2.162,0.6211 -0.586,0 -1.133,-0.1113 -1.641,-0.334 -0.508,-0.2266 -0.9,-0.5352 -1.178,-0.9258 -0.273,-0.3906 -0.41,-0.834 -0.41,-1.3301 h 1.131 c 0,0.5157 0.19,0.9239 0.569,1.2247 0.382,0.2968 0.892,0.4453 1.529,0.4453 0.594,0 1.049,-0.1211 1.365,-0.3633 0.316,-0.2422 0.475,-0.5723 0.475,-0.9902 0,-0.418 -0.147,-0.7403 -0.44,-0.9668 -0.293,-0.2305 -0.824,-0.4571 -1.594,-0.6797 z m 10.618,-4.7285 v 5.8007 c -0.004,0.8047 -0.258,1.4629 -0.762,1.9746 -0.5,0.5118 -1.18,0.7989 -2.039,0.8614 l -0.299,0.0117 c -0.934,0 -1.678,-0.252 -2.232,-0.7559 -0.555,-0.5039 -0.836,-1.1972 -0.844,-2.0801 v -5.8124 h 1.113 v 5.7773 c 0,0.6172 0.17,1.0977 0.51,1.4414 0.34,0.3398 0.824,0.5098 1.453,0.5098 0.637,0 1.123,-0.17 1.459,-0.5098 0.34,-0.3398 0.51,-0.8184 0.51,-1.4355 V 61.4688 Z M 507.723,70 h -1.131 l -4.295,-6.5742 V 70 h -1.131 v -8.5312 h 1.131 l 4.307,6.6035 v -6.6035 h 1.119 z"
     fill="#8794ba"
     id="path158" />
  <defs
     id="defs177">
    <filter
       id="filter0_d_535_1643"
       x="0"
       y="0"
       width="670"
       height="480"
       filterUnits="userSpaceOnUse"
       color-interpolation-filters="sRGB">
      <feFlood
         flood-opacity="0"
         result="BackgroundImageFix"
         id="feFlood160" />
      <feColorMatrix
         in="SourceAlpha"
         type="matrix"
         values="0 0 0 0 0 0 0 0 0 0 0 0 0 0 0 0 0 0 127 0"
         result="hardAlpha"
         id="feColorMatrix162" />
      <feMorphology
         radius="15"
         operator="erode"
         in="SourceAlpha"
         result="effect1_dropShadow_535_1643"
         id="feMorphology164" />
      <feOffset
         dy="18"
         id="feOffset166" />
      <feGaussianBlur
         stdDeviation="25"
         id="feGaussianBlur168" />
      <feColorMatrix
         type="matrix"
         values="0 0 0 0 0.0996452 0 0 0 0 0.164326 0 0 0 0 0.350284 0 0 0 0.2 0"
         id="feColorMatrix170" />
      <feBlend
         mode="normal"
         in2="BackgroundImageFix"
         result="effect1_dropShadow_535_1643"
         id="feBlend172" />
      <feBlend
         mode="normal"
         in="SourceGraphic"
         in2="effect1_dropShadow_535_1643"
         result="shape"
         id="feBlend174" />
    </filter>
  </defs>
</svg>
